<svg xmlns="http://www.w3.org/2000/svg" xmlns:xlink="http://www.w3.org/1999/xlink" viewBox="0 0 670.1 462.93"><defs><style>.cls-1{fill:#fff;}.cls-2{fill:url(#Degradado_sin_nombre_51);}</style><linearGradient id="Degradado_sin_nombre_51" x1="330.05" y1="-194.84" x2="330.05" y2="425.26" gradientUnits="userSpaceOnUse"><stop offset="0" stop-color="#fdf23e"/><stop offset="0.42" stop-color="#fdf23e"/><stop offset="0.44" stop-color="#fdf23e"/><stop offset="0.48" stop-color="#fdee3e"/><stop offset="0.52" stop-color="#fce33f"/><stop offset="0.56" stop-color="#fad03f"/><stop offset="0.59" stop-color="#f8b541"/><stop offset="0.63" stop-color="#f59242"/><stop offset="0.67" stop-color="#f26844"/><stop offset="0.7" stop-color="#ed3746"/><stop offset="0.71" stop-color="#ed3146"/><stop offset="0.89" stop-color="#ea2189"/></linearGradient></defs><title>favicon</title><g id="Capa_2" data-name="Capa 2"><g id="Capa_1-2" data-name="Capa 1"><path class="cls-1" d="M88.21,462.93a109.8,109.8,0,0,1-12.49-.71c-31.46-3.64-58.12-22.09-69.57-48.16A75.6,75.6,0,0,1,.52,375.11c3.33-29.24,20-68.34,80.22-88.51,35.84-12,76.78-14.18,106.67-15.77l1-.05.91,0h0c9.09-18.62,17.47-38.31,25.59-57.35,11.39-26.72,23.16-54.36,37.52-80.83,30.79-56.82,68.63-96.75,112.46-118.7C384.32,4.12,402.06-.4,419.17,0c24.1.6,45.89,11.7,58.29,29.7,8.87,12.88,13.13,29.42,12.67,49.15-1.1,46.2-32.09,96.67-82,101.16-23.31,2.1-44.72-8-54.56-25.79a44.74,44.74,0,0,1-4.07-10C342.13,159,336,174.69,330,190.09l-35.57,91c18.5,4.21,36.88,8.41,55,12.57.64.09,1.28.22,1.92.36l22.9,5.34c.43.1.85.21,1.27.33a499.47,499.47,0,0,0,128.68,9.78c21.29-1.14,45.78-2.89,67.1-9.38,10.42-3.17,22.46-7,33.6-11.87,1.56-.69,3.42-1.42,5.78-2.34,3.24-1.27,11.16-4.38,15-6.5a25,25,0,0,1,43,24.22v0s0,.08,0,.12l-.22.6c-19.92,54.3-67.81,97.51-125,112.79a176.76,176.76,0,0,1-45.84,5.94c-52.13,0-101.47-21.59-145.07-43-4.91-2.41-9.73-4.85-14.39-7.21-25.4-12.88-47.34-24-73.34-25.06a34.94,34.94,0,0,0-4,0,51.15,51.15,0,0,0-3.49,5.36c-24.14,41.2-62.44,75-107.84,95.14C127.32,458.11,107.18,462.93,88.21,462.93Zm538.86-184.4h0Z"/><path d="M362.4,326.52q-6.4-1.49-12.78-3.15l22.91,5.34q-49.8-11.47-99.62-22.77c-2-.45-4.09-1-5.28-2.63-1.66-2.27-.69-5.44.33-8.06Q289.32,240.62,310.67,186c10-25.61,20.15-51.46,35.59-74.22s36.87-42.46,63.11-50.69c10.61-3.34,22.95-4.49,32.22,1.67,16.29,10.81,12.81,36.57,1.28,52.36-14-13.68-38.37-14.94-53.72-2.78-10.27,8.14-16.11,23.34-9.76,34.8,5.67,10.23,18.82,14.06,30.46,13,35.29-3.17,58.44-41.43,59.28-76.86.29-12-1.46-24.5-8.26-34.37C452.48,36.73,437.33,30.39,422.55,30s-29.24,4.56-42.46,11.18c-45,22.52-77.72,64-101.69,108.26s-40.56,92-62.61,137.23c-1.89,3.88-4,7.91-7.47,10.43-4.13,3-9.5,3.35-14.57,3.62-57.26,3.05-155.92,7.88-164.39,82.2A50.44,50.44,0,0,0,33,409c8.38,19.09,28.84,31,49.55,33.38s41.58-3.45,60.64-11.91c39.79-17.66,74.41-47.37,96.41-84.93,8.39-14.3,14.12-18.37,30.08-17.72,36.9,1.49,65.55,19,97.74,34.81C421.19,389,480.29,414.18,540.89,398c48.51-13,90.61-49.88,108-97.22.08-.22.16-.43.23-.65-.72,2-8.81-10.11-8.81-10.11-7,10-17.59,24.44-21.34,26.09-11.85,5.23-24,9.16-36.41,12.92-23.32,7.1-48.61,9.12-73,10.42A525.61,525.61,0,0,1,362.4,326.52Zm-166.58.7c-4.39,9.15-8.49,18.5-13.69,27.17a170.46,170.46,0,0,1-15.83,21.48c-6.53,7.8-13.07,15.8-20.74,22.38-12.63,10.84-26.67,19.33-43.31,23.42-8.17,2-16.38,2.94-23.88.84-16-4.48-19.12-16.25-17.62-30.88.58-5.59,1.79-11.51,4.34-16.43,10.46-20.18,25.54-35.39,48.09-42,7.89-2.3,15.49-5.7,23.45-7.68a175.48,175.48,0,0,1,24.66-4.1c10.82-1.1,21.73-1.45,32.6-2.1,1-.06,2,.09,4,.2C197.13,322.59,196.85,325.08,195.82,327.22Z"/><path class="cls-2" d="M353.4,315.52q-6.4-1.49-12.78-3.15l22.91,5.34q-49.8-11.47-99.62-22.77c-2-.45-4.09-1-5.28-2.63-1.66-2.27-.69-5.44.33-8.06Q280.32,229.62,301.67,175c10-25.61,20.15-51.46,35.59-74.22s36.87-42.46,63.11-50.69c10.61-3.34,22.95-4.49,32.22,1.67,16.29,10.81,12.81,36.57,1.28,52.36-14-13.68-38.37-14.94-53.72-2.78-10.27,8.14-16.11,23.34-9.76,34.8,5.67,10.23,18.82,14.06,30.46,13,35.29-3.17,58.44-41.43,59.28-76.86.29-12-1.46-24.5-8.26-34.37C443.48,25.73,428.33,19.39,413.55,19s-29.24,4.56-42.46,11.18c-45,22.52-77.72,64-101.69,108.26s-40.56,92-62.61,137.23c-1.89,3.88-4,7.91-7.47,10.43-4.13,3-9.5,3.35-14.57,3.62-57.26,3.05-155.92,7.88-164.39,82.2A50.44,50.44,0,0,0,24,398c8.38,19.09,28.84,31,49.55,33.38s41.58-3.45,60.64-11.91c39.79-17.66,74.41-47.37,96.41-84.93,8.39-14.3,14.12-18.37,30.08-17.72,36.9,1.49,65.55,19,97.74,34.81C412.19,378,471.29,403.18,531.89,387c48.51-13,90.61-49.88,108-97.22.08-.22.16-.43.23-.65-2.14,5.92-24.48,13.48-30.15,16-11.85,5.23-24,9.16-36.41,12.92-23.32,7.1-48.61,9.12-73,10.42A525.61,525.61,0,0,1,353.4,315.52Zm-166.58.7c-4.39,9.15-8.49,18.5-13.69,27.17a170.46,170.46,0,0,1-15.83,21.48c-6.53,7.8-13.07,15.8-20.74,22.38-12.63,10.84-26.67,19.33-43.31,23.42-8.17,2-16.38,2.94-23.88.84-16-4.48-19.12-16.25-17.62-30.88.58-5.59,1.79-11.51,4.34-16.43,10.46-20.18,25.54-35.39,48.09-42,7.89-2.3,15.49-5.7,23.45-7.68a175.48,175.48,0,0,1,24.66-4.1c10.82-1.1,21.73-1.45,32.6-2.1,1-.06,2,.09,4,.2C188.13,311.59,187.85,314.08,186.82,316.22Z"/></g></g></svg>