<svg width="37" height="36" viewBox="0 0 37 36" fill="none" xmlns="http://www.w3.org/2000/svg">
<path d="M36.0617 17.5885C36.0351 27.3599 28.1558 35.1503 18.3312 35.1236C8.72861 35.097 0.902638 27.1556 0.93817 17.4641C0.973702 7.78162 8.87073 -0.0265811 18.6066 6.80119e-05C28.2447 0.0267172 36.0884 7.93263 36.0617 17.5885ZM18.4822 7.40853C16.9099 7.40853 15.3465 7.39965 13.7742 7.40853C10.7184 7.43518 8.28445 9.86914 8.27557 12.9249C8.26669 16.0429 8.26669 19.1697 8.27557 22.2876C8.28445 25.299 10.6829 27.7685 13.6853 27.804C16.8921 27.8395 20.1078 27.8395 23.3146 27.804C26.3259 27.7685 28.7243 25.2901 28.7332 22.2876C28.7332 19.2141 28.7332 16.1317 28.7332 13.0582C28.7332 9.81584 26.3082 7.39965 23.057 7.39965C21.5291 7.40853 20.0101 7.40853 18.4822 7.40853Z" fill="#CCCCCC"/>
<path d="M18.5177 9.20295C20.0456 9.20295 21.5646 9.20295 23.0925 9.20295C25.3133 9.21183 26.9477 10.8641 26.9477 13.0937C26.9477 16.0695 26.9477 19.0454 26.9477 22.0123C26.9477 24.4285 25.3577 26.0274 22.9504 26.0363C19.9479 26.0452 16.9454 26.0452 13.943 26.0363C11.7133 26.0363 10.07 24.393 10.07 22.1633C10.0611 19.1342 10.0611 16.0962 10.07 13.0671C10.07 10.8463 11.7222 9.21183 13.9518 9.20295C15.4708 9.19407 16.9898 9.19407 18.5177 9.20295ZM18.4911 23.1938C21.609 23.1938 24.1052 20.6887 24.1052 17.5708C24.1052 14.5594 21.5291 12.0189 18.4911 12.0366C15.462 12.0544 12.9569 14.5683 12.9569 17.5974C12.9481 20.6887 15.4353 23.1938 18.4911 23.1938ZM25.1711 12.161C25.18 11.5125 24.647 10.9796 23.9986 10.9707C23.3412 10.9618 22.8171 11.477 22.8082 12.1344C22.7994 12.7917 23.3146 13.3158 23.9719 13.3247C24.6293 13.3336 25.1623 12.8095 25.1711 12.161Z" fill="#CCCCCC"/>
<path d="M22.1598 17.6329C22.1598 19.6671 20.5253 21.3016 18.5 21.3016C16.4747 21.3016 14.8491 19.6582 14.8491 17.624C14.8491 15.6253 16.4835 13.9819 18.4911 13.9731C20.5076 13.9642 22.1598 15.6075 22.1598 17.6329Z" fill="#CCCCCC"/>
</svg>
