<svg width="36" height="36" viewBox="0 0 36 36" fill="none" xmlns="http://www.w3.org/2000/svg">
<path d="M17.5707 7.5291e-06C27.2265 -0.00887552 35.0969 7.84374 35.1236 17.5085C35.1502 27.2354 27.2798 35.1236 17.544 35.1236C7.79932 35.1236 0 27.2621 0 17.4374C0 7.84374 7.89703 0.00889058 17.5707 7.5291e-06ZM14.0885 19.1874C14.0885 19.4361 14.0885 19.6138 14.0885 19.7914C14.0885 22.6784 14.0974 25.5654 14.0796 28.4524C14.0796 28.8166 14.1773 28.941 14.5504 28.9321C15.4121 28.9054 16.2649 28.9232 17.1265 28.9232C17.5174 28.9232 17.9171 28.9232 18.3613 28.9232C18.3613 25.6543 18.3613 22.4475 18.3613 19.1963C19.294 19.1963 20.1823 19.1874 21.0617 19.2052C21.3548 19.214 21.4792 19.1163 21.5147 18.8232C21.6569 17.8549 21.8168 16.8956 21.9678 15.9273C22.0033 15.7141 22.0211 15.5009 22.0566 15.2344C20.7952 15.2344 19.596 15.2344 18.3435 15.2344C18.3435 14.3106 18.3435 13.4401 18.3435 12.5695C18.3435 11.4236 18.9653 10.713 20.1201 10.5975C20.5909 10.5531 21.0617 10.5797 21.5414 10.5708C21.7546 10.5708 21.9678 10.5708 22.2254 10.5708C22.2254 9.50487 22.2343 8.51885 22.2076 7.53283C22.2076 7.444 21.9855 7.29299 21.8523 7.28411C20.9196 7.22193 19.9869 7.19528 19.063 7.15086C16.4869 7.04426 14.6837 8.42114 14.2662 10.9617C14.0707 12.1609 14.1418 13.4045 14.0974 14.6304C14.0885 14.8169 14.0974 15.0035 14.0974 15.2433C12.8893 15.2433 11.7434 15.2433 10.5975 15.2433C10.5975 16.5758 10.5975 17.8638 10.5975 19.1874C11.7612 19.1874 12.8893 19.1874 14.0885 19.1874Z" fill="#CCCCCC"/>
</svg>
