<svg width="20" height="16" viewBox="0 0 20 16" fill="none" xmlns="http://www.w3.org/2000/svg">
<path fill-rule="evenodd" clip-rule="evenodd" d="M0.000106305 3C0.000106305 1.34315 1.34325 0 3.00011 0H17.0001C18.657 0 20.0001 1.34315 20.0001 3V3.98448C20.0002 3.99422 20.0002 4.00395 20.0001 4.01368V13C20.0001 14.6569 18.657 16 17.0001 16H3.00011C1.34325 16 0.000106305 14.6569 0.000106305 13V4.01367C-3.53157e-05 4.00395 -3.55541e-05 3.99422 0.000106305 3.98449V3ZM2.00011 5.86852V13C2.00011 13.5523 2.44782 14 3.00011 14H17.0001C17.5524 14 18.0001 13.5523 18.0001 13V5.86852L11.6642 10.0925C10.6565 10.7642 9.3437 10.7642 8.33601 10.0925L2.00011 5.86852ZM18.0001 3.46482L10.5548 8.42835C10.2189 8.65228 9.78131 8.65228 9.44541 8.42835L2.00011 3.46482V3C2.00011 2.44772 2.44782 2 3.00011 2H17.0001C17.5524 2 18.0001 2.44772 18.0001 3V3.46482Z" fill="#FDF23E"/>
</svg>
