<svg width="20" height="20" viewBox="0 0 20 20" fill="none" xmlns="http://www.w3.org/2000/svg">
<path fill-rule="evenodd" clip-rule="evenodd" d="M0 3C0 1.34315 1.34315 0 3 0H6.27924C7.1401 0 7.90438 0.55086 8.17661 1.36755L9.67442 5.86098C9.98916 6.80521 9.5617 7.83718 8.67148 8.28229L7.31494 8.96057C8.20155 10.5092 9.49081 11.7984 11.0394 12.6851L11.7177 11.3285C12.1628 10.4383 13.1948 10.0108 14.139 10.3256L18.6325 11.8234C19.4491 12.0956 20 12.8599 20 13.7208V17C20 18.6569 18.6569 20 17 20H16C7.16344 20 0 12.8366 0 4V3ZM3 2C2.44772 2 2 2.44772 2 3V4C2 11.732 8.26801 18 16 18H17C17.5523 18 18 17.5523 18 17V13.7208L13.5066 12.2229L12.3779 14.4802C12.1379 14.9602 11.5618 15.1652 11.0725 14.9446C8.40543 13.7421 6.25786 11.5946 5.05538 8.92752C4.83479 8.43825 5.03975 7.86209 5.51979 7.62207L7.77705 6.49344L6.27924 2H3Z" fill="#FDF23E"/>
</svg>
