<svg width="36" height="36" viewBox="0 0 36 36" fill="none" xmlns="http://www.w3.org/2000/svg">
<path d="M18.4204 35.1236C8.72901 35.1058 0.867518 27.2355 0.885284 17.5529C0.894167 7.7727 8.78232 -0.0177358 18.6514 3.03261e-05C28.2007 0.0177964 36.0266 7.96812 36 17.6151C35.9822 27.3065 28.1118 35.1502 18.4204 35.1236ZM17.6476 18.4146C17.6476 17.4641 17.6476 16.5491 17.6476 15.6342C17.6476 14.9946 17.6476 14.9768 16.9902 14.968C14.6274 14.9413 12.753 15.9096 11.5094 17.9171C10.2569 19.9425 10.2214 22.0744 11.3584 24.1708C12.7264 26.6669 15.6223 27.8662 18.376 27.1466C21.1386 26.4271 23.0307 23.9931 23.0396 21.115C23.0485 19.0098 23.0396 16.9134 23.0396 14.8081C23.0396 14.6571 23.0396 14.4972 23.0396 14.2662C23.1995 14.3817 23.2794 14.4439 23.3505 14.506C24.4964 15.3766 25.7934 15.803 27.2324 15.8119C27.5877 15.8119 27.6854 15.6875 27.6766 15.3499C27.6588 14.506 27.6677 13.6622 27.6677 12.8183C27.6677 12.6939 27.641 12.5695 27.6233 12.4452C26.273 12.5518 25.216 12.0366 24.3454 11.1038C23.4838 10.18 23.0485 9.07851 23.013 7.79935C21.8848 7.79935 20.7922 7.79935 19.6374 7.79935C19.6374 8.01254 19.6374 8.19908 19.6374 8.38563C19.6374 12.4985 19.6374 16.6202 19.6374 20.7331C19.6374 20.9551 19.6374 21.1772 19.6196 21.3993C19.513 22.8828 18.1983 24.0642 16.7149 24.002C15.1248 23.9398 13.9256 22.6962 13.9434 21.1239C13.9611 19.6138 15.2136 18.3613 16.7326 18.3524C17.0258 18.3524 17.3012 18.3879 17.6476 18.4146Z" fill="#CCCCCC"/>
</svg>
