<svg width="168" height="85" viewBox="0 0 168 85" fill="none" xmlns="http://www.w3.org/2000/svg">
<path d="M54.9769 23.7496C52.5029 25.0791 50.5839 27.1209 49.0931 29.4633C47.9829 31.2202 46.9204 33.0879 46.3018 35.0663C45.6833 37.0606 45.5723 39.2765 46.0957 41.3499C46.9045 44.5471 48.649 45.2752 51.4086 44.468C52.709 44.0881 53.8509 43.1068 55.0562 42.3945C55.2783 42.2679 55.532 42.1413 55.754 42.0147C55.8492 42.2363 55.9919 42.442 56.0395 42.6794C56.3091 44.0565 57.7365 44.9745 58.8783 44.468C59.8299 44.0406 60.8608 43.6766 61.7013 43.0751C63.2872 41.9514 64.4926 41.0809 63.8899 39.1657C63.7472 39.2923 63.6203 39.4031 63.4776 39.5139C62.6846 40.1312 61.9075 40.7643 61.1145 41.3657C60.718 41.6665 60.385 41.6032 60.0202 41.16C59.481 40.5111 59.7823 39.8146 59.9251 39.2448C60.3057 37.852 60.829 36.5067 61.3841 35.1771C61.8916 33.9267 62.4943 32.7238 63.0335 31.5051C63.3507 30.777 63.208 30.4288 62.4626 30.1123C61.5903 29.7324 60.0044 29.8907 59.4651 30.6504C58.8308 31.5368 58.3708 32.5656 57.9585 33.5785C57.3083 35.2246 56.8166 36.9498 56.1347 38.5959C55.7699 39.4664 54.9769 40.0837 54.0412 40.242C52.1064 40.5585 51.25 38.4851 51.5354 37.1239C51.7733 35.9527 52.154 34.7814 52.6139 33.6735C53.2483 32.154 54.1681 30.777 55.4368 29.7482C57.5937 28.0072 59.9726 27.7065 62.4308 29.1626C63.0176 28.577 63.0335 28.577 63.0176 26.8043C63.0018 25.269 62.2722 24.1136 60.9559 23.4172C58.9418 22.3726 56.8483 22.7524 54.9769 23.7496Z" fill="black" fill-opacity="0.15"/>
<path d="M73.1993 51.6853C66.2529 50.3874 59.3541 48.8363 52.4711 47.2694C47.8877 46.2248 43.2885 45.196 38.7051 44.1513C38.388 44.088 38.0549 43.993 37.8646 43.7398C37.595 43.3758 37.7536 42.8851 37.9122 42.4578C40.1642 36.6965 42.4321 30.9352 44.6841 25.1581C46.2701 21.1062 47.8877 17.0069 50.3301 13.414C52.7724 9.82112 56.1822 6.68724 60.3374 5.38937C62.0185 4.86706 63.985 4.67713 65.4441 5.65844C68.0292 7.36783 67.4741 11.4514 65.6503 13.9521C63.4299 11.7837 59.5603 11.5938 57.1338 13.509C55.5002 14.791 54.5804 17.1968 55.5795 19.017C56.4835 20.6314 58.5611 21.2487 60.4167 21.0746C66.015 20.5681 69.6785 14.5219 69.8213 8.90311C69.8689 7.00379 69.5834 5.02534 68.5049 3.4584C67.1886 1.54325 64.778 0.546107 62.4308 0.482796C60.0836 0.419486 57.7999 1.21087 55.6906 2.25549C48.5538 5.81672 43.3678 12.3852 39.5616 19.3969C35.7553 26.3927 33.1226 33.9583 29.6336 41.1124C29.3322 41.7297 28.9992 42.3628 28.4441 42.7585C27.7939 43.2333 26.9375 43.2808 26.1287 43.3283C17.0412 43.8189 1.40386 44.5787 0.0558123 56.3386C-0.102782 57.7315 0.0716717 59.1718 0.64261 60.4696C1.9748 63.4927 5.21012 65.3762 8.50887 65.7561C11.7918 66.136 15.1064 65.2021 18.1197 63.8726C24.4317 61.0711 29.919 56.3703 33.4081 50.4349C34.0901 49.2795 34.8037 47.9816 36.0884 47.5701C36.7703 47.3485 37.5157 47.4277 38.2294 47.5226C53.8667 49.5327 68.1243 57.2408 83.2383 61.7042C87.5838 62.9862 92.072 64.015 96.5919 63.7935C106.234 63.3186 115.274 56.671 118.605 47.6334C118.621 47.6018 118.636 47.5701 118.636 47.5384C112.039 51.6853 104.189 53.553 96.4016 53.9012C88.6464 54.2177 80.8594 53.1098 73.1993 51.6853ZM26.4776 47.5226C25.7797 48.9629 25.1295 50.4507 24.3048 51.8277C23.5753 53.0306 22.703 54.1544 21.799 55.2307C20.7682 56.4652 19.7215 57.7315 18.5161 58.7761C16.5179 60.4855 14.2817 61.8308 11.649 62.4798C10.3486 62.7963 9.04809 62.9388 7.85863 62.6064C5.32113 61.8941 4.82949 60.0423 5.06738 57.7156C5.16254 56.8293 5.35285 55.8955 5.74933 55.1199C7.41457 51.9227 9.79348 49.5169 13.3777 48.4723C14.6306 48.1082 15.8359 47.5701 17.0888 47.2535C18.3734 46.937 19.6897 46.7312 21.0061 46.6046C22.7189 46.4305 24.4476 46.383 26.1762 46.2722C26.3348 46.2564 26.4934 46.2881 26.8106 46.3039C26.6837 46.7945 26.6362 47.1902 26.4776 47.5226Z" fill="black" fill-opacity="0.15"/>
<path d="M163.772 41.4132C163.408 41.7139 162.916 41.9672 162.472 41.8089C162.06 41.6664 161.822 41.2074 161.806 40.7643C161.79 40.3211 161.949 39.9096 162.091 39.498C162.868 37.4088 163.661 35.3354 164.438 33.2461C164.597 32.8188 164.756 32.3439 164.597 31.9324C164.454 31.5684 164.074 31.3151 163.693 31.236C162.599 31.0144 161.6 31.9166 161.029 32.8663C159.728 35.003 159.474 37.6937 157.968 39.7038C157.619 40.1786 157.159 40.6218 156.572 40.7326C155.7 40.9067 154.828 40.2103 154.526 39.3714C154.225 38.5326 154.352 37.6146 154.542 36.744C155.05 34.4648 156.065 32.2173 157.889 30.7612C159.712 29.305 162.488 28.8935 164.391 30.223C164.803 28.7511 164.756 27.0258 163.757 25.8863C162.964 24.9841 161.711 24.5884 160.521 24.6675C159.332 24.7308 158.19 25.2215 157.175 25.8388C152.687 28.5611 150.688 33.4519 147.532 37.393C146.85 38.2318 146.057 38.9916 145.328 39.7988C145.042 40.1153 144.694 40.3527 144.345 40.0678C144.075 39.8463 143.742 39.4031 143.774 39.1182C143.932 38.1843 144.154 37.2505 144.519 36.3958C145.312 34.5123 146.184 32.6447 147.088 30.7928C147.961 29.036 148.88 27.2949 149.832 25.5697C151.259 23.0056 152.576 20.3941 153.353 17.5451C153.543 16.8487 153.591 16.0889 153.559 15.3609C153.495 13.9522 152.29 12.8284 150.673 13.3033C149.88 13.5407 149.055 13.7464 148.357 14.1579C147.358 14.7594 146.216 15.1076 146.168 16.8328C146.121 18.6372 145.36 20.4257 144.82 22.1984C144.249 24.0977 143.599 25.9654 142.933 27.8331C142.457 29.1626 141.886 30.4604 141.331 31.7583C141.157 32.1698 140.982 32.613 140.697 32.9612C139.65 34.2116 138.223 34.8605 136.732 35.4145C136.51 35.4936 136.256 35.4462 135.876 35.4778C136.003 34.7656 136.066 34.1641 136.225 33.5943C136.447 32.8029 136.193 32.249 135.543 31.8058C134.179 30.8403 132.609 31.7583 132.054 32.7555C131.61 33.531 131.356 34.4174 131.102 35.2879C130.848 36.1584 131.245 37.3297 131.816 37.6779C132.117 37.852 132.402 38.0419 132.688 38.216C131.99 39.7038 131.498 40.4002 130.388 41.1283C128.882 42.1096 127.518 41.3657 127.169 39.8304C126.804 38.2635 127.01 36.5699 127.74 35.0821C128.723 33.1037 130.055 31.331 132.085 30.2863C133.1 29.764 134.226 29.4316 135.416 29.6058C136.098 29.7007 136.78 29.8432 137.446 29.954C137.557 29.6849 137.652 29.495 137.715 29.305C138.27 27.5323 137.493 25.3956 135.479 25.079C134.004 24.8416 132.466 24.9049 130.991 25.5064C128.152 26.6776 126.217 28.8302 124.806 31.4101C123.41 33.9584 121.713 36.2534 119.874 38.4692C119.414 39.0232 118.89 39.498 118.367 39.9887C117.875 40.4635 117.399 40.2261 117.288 39.7038C117.162 39.1024 117.162 38.4059 117.32 37.8203C117.479 37.1872 117.875 36.6016 118.192 36.016C119.049 34.4648 119.953 32.9454 120.793 31.3943C121.459 30.1597 122.11 28.8935 122.681 27.6115C123.077 26.7568 122.776 25.9496 122.126 25.3481C120.952 24.2877 119.176 24.1294 117.78 24.8891C116.892 25.3639 116.036 25.9021 115.163 26.3927C114.957 26.5035 114.735 26.551 114.386 26.6776C114.497 26.3294 114.529 26.1553 114.624 25.9812C115.592 24.0977 116.638 22.2301 117.542 20.3149C118.24 18.8271 118.748 17.2443 118.668 15.5824C118.589 13.8889 117.653 13.0975 115.94 13.2558C114.481 13.3824 113.355 14.1579 112.182 14.8385C111.722 15.1076 111.103 15.3767 111.214 16.1997C111.309 16.8961 111.341 17.6559 111.198 18.3365C110.659 21.0746 109.93 23.7495 108.851 26.3294C108.217 27.8647 107.694 29.4475 106.901 30.8878C105.584 33.2619 104.093 35.557 101.968 37.3138C100.715 38.3584 99.3991 39.3556 97.9876 40.1786C96.9726 40.7801 95.799 41.2074 94.6413 41.4132C93.5152 41.6031 92.2782 41.6664 91.3267 40.6851C90.0103 39.3239 89.709 37.6304 90.0896 35.9052C90.5337 33.9267 91.2315 31.9957 91.961 30.1122C92.2465 29.3525 92.4844 28.4978 93.4994 28.118C94.9743 27.5482 96.3382 26.7409 97.7497 26.0287C98.3524 25.728 98.9709 25.4431 99.5101 25.0632C100.953 24.0502 102.397 23.0214 103.76 21.9135C106.425 19.7609 108.407 17.1177 109.105 13.6831C109.406 12.2111 108.55 10.3751 107.297 9.77369C106.25 9.2672 105.156 9.20389 104.078 9.37799C100.636 9.93196 97.7814 11.7205 95.2439 13.9997C93.3249 15.7249 91.4852 17.5609 89.8517 19.5552C88.3768 21.3595 87.2349 23.4488 85.9345 25.3956C85.5856 25.9337 85.2842 26.551 84.4912 26.5827C83.5555 26.6301 82.604 26.7251 81.6683 26.7251C79.559 26.7409 77.4338 26.8359 75.3562 26.2661C73.1042 25.6488 71.3121 24.5251 70.535 22.1984C70.424 21.866 70.3447 21.5336 70.2337 21.1063C68.9649 21.8344 67.9975 22.7365 67.2362 23.8287C64.8732 27.1683 66.364 30.2863 69.8213 31.6159C70.757 31.9799 71.8196 32.0274 72.8187 32.2965C74.7853 32.8346 76.7677 32.6288 78.7501 32.4072C79.8603 32.2806 80.9546 32.059 82.0489 31.9799C83.1432 31.9008 83.3018 32.1857 83.0956 33.2936C82.9529 34.0375 82.8419 34.7814 82.826 35.5253C82.7784 37.4879 82.937 39.4031 83.3652 41.3499C83.619 42.5053 84.0789 43.4866 84.634 44.4521C85.649 46.1931 87.3618 47.0795 89.2332 47.4119C91.057 47.7443 92.9602 47.5385 94.6254 46.6363C95.8624 45.9557 96.9726 45.0536 98.1462 44.2463C99.2881 43.455 100.255 42.5211 101.08 41.3974C101.445 40.9067 102.016 40.5743 102.634 40.0362C102.634 40.7959 102.634 41.3341 102.634 41.888C102.634 43.2492 103.475 44.183 104.823 44.5154C105.838 44.7528 107.281 43.9614 107.836 43.1384C108.153 42.6636 108.312 42.1096 108.439 41.5398C109.089 38.4534 109.438 35.6677 111.119 32.8821C111.754 31.8216 112.769 30.9669 113.673 30.0648C114.053 29.7007 114.561 29.4316 115.052 29.2101C115.243 29.1309 115.623 29.2259 115.782 29.3842C115.893 29.495 115.877 29.8748 115.798 30.0648C114.957 31.8375 114.101 33.6101 113.244 35.367C112.229 37.4563 111.325 39.593 110.929 41.9038C110.786 42.7269 110.77 43.6449 111.452 44.2622C112.118 44.8636 112.975 45.1643 113.91 44.8478C116.02 44.1355 117.558 42.6952 118.827 40.9384C119.889 39.4506 121.015 38.0102 122.284 36.3325C122.363 36.839 122.459 37.1239 122.459 37.393C122.395 38.9757 122.237 40.5427 122.76 42.1096C123.188 43.3758 124.822 44.9111 126.106 44.9586C128.136 45.0377 129.849 44.4363 131.276 42.9643C132.561 41.6348 133.449 39.9096 134.417 38.3585C135.194 37.1081 136.637 36.8232 137.795 36.1267C138.255 35.8419 138.826 35.7469 139.349 35.5728C139.079 36.8232 138.635 37.8361 138.302 38.8808C137.985 39.8937 137.763 40.9225 137.541 41.9513C137.24 43.3916 137.953 44.4679 139.381 44.8636C140.697 45.2435 141.696 44.5312 142.584 43.819C143.996 42.6952 145.201 41.3657 146.216 39.8779C146.628 39.2765 149.087 37.0448 149.087 36.9498C148.928 38.4534 148.754 39.9887 149.134 41.4448C149.499 42.901 150.53 44.2938 151.989 44.6579C153.004 44.9111 154.082 44.6579 155.018 44.1989C155.954 43.7399 156.778 43.0909 157.635 42.5053C157.746 42.4262 157.857 42.3629 157.984 42.3629C158.396 42.347 158.475 42.9168 158.586 43.3125C158.808 44.0722 159.665 44.5312 160.458 44.5312C161.251 44.5312 162.012 44.1514 162.678 43.7399C164.232 42.7902 165.596 41.5556 166.706 40.0995C166.722 40.0678 166.754 40.0362 166.77 40.0045C167.309 39.2765 167.769 38.3585 167.404 37.5354C165.802 38.2635 165.168 40.2736 163.772 41.4132ZM98.1145 19.9192C99.3674 18.4156 100.652 16.9436 102.032 15.5508C102.571 14.9968 103.348 14.6644 104.062 14.3162C104.569 14.063 105.235 13.8889 105.616 14.4903C106.028 15.1393 105.679 15.7724 105.315 16.3422C103.998 18.3998 102.063 19.7451 100.002 20.948C98.955 21.5495 97.8924 22.0876 96.8299 22.6574C96.7347 22.5624 96.6554 22.4675 96.5603 22.3725C97.0678 21.5495 97.496 20.6631 98.1145 19.9192Z" fill="black" fill-opacity="0.15"/>
<path d="M48.507 75.6493C48.9936 75.75 49.4659 75.9081 49.9525 75.9369C51.0402 75.9944 52.0563 76.2532 53.0152 76.7277C54.6611 77.5472 54.6181 78.8412 53.8453 80.0058C52.9437 81.3717 51.4982 81.9468 49.9239 82.0475C48.9221 82.1193 47.863 82.2631 46.8898 81.688C46.0597 81.1992 45.7735 80.4946 46.1885 79.6176C46.5034 78.9706 46.9614 78.5105 47.7342 78.3811C47.6483 79.2294 47.8916 79.5026 48.6931 79.4882C50.067 79.4738 51.3407 79.1431 52.3569 78.1223C52.8435 77.6335 52.8292 77.2596 52.2281 76.9577C51.6842 76.6845 51.0831 76.4688 50.482 76.3826C49.5947 76.2532 48.6931 76.2676 47.7914 76.2244C47.0615 76.1957 46.6465 75.865 46.4032 75.0167C46.2171 74.3697 46.4748 73.924 47.0043 73.5501C48.4641 72.5293 50.0813 71.9686 51.856 71.8679C52.3998 71.8392 52.958 71.8248 53.5018 71.8823C53.9312 71.9254 54.3462 72.0836 54.3319 72.6587C54.3176 73.2195 54.1029 73.622 53.5304 73.7227C52.729 73.8665 51.8703 73.8377 51.0974 74.0821C50.1958 74.3697 49.3514 74.8729 48.4784 75.2899C48.4927 75.4049 48.507 75.5199 48.507 75.6493Z" fill="black" fill-opacity="0.25"/>
<path d="M109.46 75.9944C109.131 75.5918 108.788 75.3186 108.616 74.9592C108.401 74.4703 108.187 74.4847 107.886 74.8154C106.799 76.0375 106.169 77.4322 106.298 79.0856C106.369 80.0058 107.571 80.8254 108.63 80.1208C109.203 79.7326 109.647 79.1144 110.062 78.5393C110.419 78.0361 110.591 77.9785 111.006 78.453C111.436 78.9419 111.378 79.6751 110.906 80.509C110.19 81.8318 109.06 82.3494 107.629 82.2056C106.484 82.105 105.267 80.8541 104.924 79.5889C104.237 77.044 105.081 74.8442 106.398 72.745C106.584 72.4431 106.77 72.1411 107.013 71.8679C108.316 70.3583 109.303 71.0484 110.205 71.9974C110.906 72.7306 110.863 73.0613 110.348 73.9527C110.033 74.5279 109.818 75.1605 109.46 75.9944Z" fill="black" fill-opacity="0.25"/>
<path d="M81.6529 76.7276C82.0537 76.5695 82.4401 76.4113 82.8408 76.2819C83.5135 76.0662 84.1289 76.4401 84.1718 77.1446C84.229 78.2804 84.1861 79.4307 84.1861 80.5665C84.1861 80.7678 84.2147 80.9691 84.2004 81.1704C84.2004 81.3717 84.229 81.7024 84.1289 81.7311C83.8856 81.8318 83.5707 81.9036 83.3274 81.8318C82.7406 81.6305 82.5546 81.0841 82.6834 80.2358C82.7836 79.6032 82.8694 78.9562 82.941 78.3236C82.9839 77.921 82.4973 77.3315 82.1682 77.3171C81.5241 77.274 81.4383 77.6766 81.4669 78.1942C81.5241 79.3156 81.5814 80.4227 81.6386 81.7311C81.2379 81.7024 80.7513 81.7455 80.3076 81.6161C80.1359 81.573 79.9785 81.1416 79.9785 80.8972C79.9928 78.6543 80.05 76.4257 80.093 74.1827C80.093 73.9239 80.0214 73.6508 79.9785 73.392C79.9069 73.0181 80.0071 72.7593 80.4078 72.6012C81.3667 72.213 81.61 72.3568 81.5957 73.392C81.5814 74.384 81.5241 75.3761 81.4955 76.3682C81.4955 76.4544 81.5957 76.5838 81.6529 76.7276Z" fill="black" fill-opacity="0.25"/>
<path d="M130.899 76.7994C131.214 76.6557 131.415 76.555 131.615 76.4688C132.789 75.9368 133.561 76.4112 133.547 77.6909C133.547 78.6542 133.461 79.6319 133.418 80.5952C133.418 80.7534 133.361 80.9403 133.433 81.0697C133.676 81.5441 133.49 81.8892 133.061 81.8892C132.731 81.8892 132.288 81.6448 132.116 81.3716C131.944 81.0984 132.016 80.6527 132.03 80.2789C132.044 79.4737 132.102 78.6829 132.087 77.8778C132.073 77.3746 131.701 77.2739 131.272 77.317C130.799 77.3602 130.699 77.6765 130.728 78.0935C130.785 79.2581 130.828 80.4227 130.885 81.6304C129.926 82.1049 129.139 81.6016 129.211 80.4658C129.354 78.3954 129.325 76.2962 129.368 74.2258C129.368 74.0389 129.382 73.852 129.354 73.6794C129.196 72.7018 129.311 72.5292 130.241 72.4142C130.728 72.3567 131.014 72.6874 130.957 73.1906C130.857 74.1683 130.785 75.1604 130.728 76.1381C130.713 76.3394 130.828 76.555 130.899 76.7994Z" fill="black" fill-opacity="0.25"/>
<path d="M69.7313 78.7262C69.6168 79.8908 69.5453 81.0554 69.4021 82.2056C69.259 83.3846 68.3717 83.8735 67.3699 84.1035C66.869 84.2185 66.3251 84.161 65.8099 84.0604C65.6239 84.0316 65.3806 83.6866 65.3519 83.4565C65.3233 83.2552 65.5094 82.8958 65.6811 82.8239C65.8528 82.752 66.182 82.9245 66.3538 83.0683C67.1695 83.7585 68.0712 83.4853 68.3001 82.4501C68.386 82.0762 68.4146 81.7024 68.429 81.3286C68.429 81.1848 68.3001 81.0267 68.2286 80.8685C68.0998 80.9548 67.9567 81.0267 67.8422 81.1273C67.6132 81.3142 67.4271 81.5443 67.1695 81.688C66.5255 82.0475 65.9387 81.8318 65.6239 81.1992C64.9798 79.8764 65.724 77.1015 66.9405 76.3107C67.5559 75.9225 68.0282 76.0088 68.5005 76.5695C68.6436 76.7421 68.9012 76.8858 69.1016 76.8858C69.5596 76.8858 69.7027 77.0728 69.6741 77.5041C69.6454 77.9067 69.6741 78.3236 69.6741 78.7262C69.6884 78.7262 69.7027 78.7262 69.7313 78.7262ZM66.9978 80.5378C67.928 80.5666 68.429 79.2151 68.0712 77.6191C67.284 77.8348 66.826 79.0713 66.9978 80.5378Z" fill="black" fill-opacity="0.25"/>
<path d="M119.722 79.9195C119.693 78.6399 120.037 77.4897 120.953 76.5551C121.611 75.8794 122.212 75.9225 122.813 76.6558C122.914 76.7852 123.014 76.9146 123.157 76.9865C123.386 77.1015 123.83 77.1015 123.858 77.2309C123.944 77.6622 123.973 78.1367 123.901 78.568C123.715 79.5313 123.815 80.4228 124.373 81.2423C124.431 81.3286 124.345 81.6161 124.245 81.688C123.615 82.105 123.186 81.9181 122.942 81.1848C122.871 80.9691 122.713 80.7822 122.584 80.5809C122.441 80.7391 122.298 80.926 122.126 81.0554C121.783 81.3142 121.44 81.688 121.053 81.7743C120.18 81.9468 119.736 81.4005 119.722 80.3221C119.722 80.1927 119.722 80.0489 119.722 79.9195ZM122.427 77.6047C122.284 77.6047 122.212 77.576 122.155 77.6047C121.64 77.921 121.024 79.7326 121.268 80.279C121.425 80.6097 121.611 80.7535 121.926 80.3653C122.613 79.5457 122.398 78.5968 122.427 77.6047Z" fill="black" fill-opacity="0.25"/>
<path d="M59.5413 81.6161C58.8973 82.0618 58.2962 82.0187 58.1245 81.0985C58.0958 80.9547 57.9384 80.7534 57.8239 80.7534C57.7094 80.739 57.5806 80.9403 57.4375 81.0266C57.0654 81.2854 56.7076 81.7167 56.3069 81.7742C55.2907 81.918 55.0618 81.5154 54.9186 80.1783C54.7755 78.7549 55.2621 77.389 56.4071 76.3825C57.0081 75.8506 57.6522 75.9943 58.0815 76.6701C58.196 76.8426 58.4393 77.0152 58.6254 77.0152C59.0833 77.0152 59.2408 77.2165 59.1978 77.6334C59.1549 78.1079 59.0261 78.5824 59.0833 79.0425C59.1835 79.8764 59.3696 80.7103 59.5413 81.6161ZM57.5949 77.5615C57.5091 77.5615 57.4232 77.5759 57.3373 77.5759C56.865 78.3379 56.4929 79.1575 56.5072 80.092C56.5072 80.2502 56.636 80.5377 56.7076 80.5377C56.8793 80.5377 57.1513 80.4515 57.2085 80.3221C57.4518 79.747 57.7094 79.1431 57.8382 78.5392C57.8955 78.2517 57.6808 77.8922 57.5949 77.5615Z" fill="black" fill-opacity="0.25"/>
<path d="M137.225 80.4515C136.996 80.6816 136.81 80.8397 136.667 81.0266C136.209 81.6736 135.551 82.0187 135.036 81.7886C134.449 81.5155 134.277 80.926 134.234 80.3365C134.163 79.0712 134.406 77.8779 135.207 76.8714C135.465 76.5551 135.837 76.2819 136.223 76.1381C136.639 75.98 137.025 76.1381 137.283 76.5982C137.397 76.7995 137.683 76.9864 137.927 77.0296C138.485 77.1158 138.628 77.3459 138.556 77.9354C138.47 78.6974 138.413 79.4738 138.47 80.2358C138.513 80.6959 138.814 81.1273 139 81.573C137.984 81.9612 137.626 82.335 137.225 80.4515ZM136.767 77.5616C135.952 78.338 135.909 79.33 135.78 80.279C135.766 80.3652 135.966 80.5665 136.066 80.5665C136.209 80.5665 136.424 80.4803 136.51 80.3652C137.039 79.7039 137.111 78.8987 137.068 78.0935C137.054 77.921 136.896 77.7628 136.767 77.5616Z" fill="black" fill-opacity="0.25"/>
<path d="M116.616 81.5299C115.557 82.1769 115.114 81.9325 114.885 80.4516C114.641 80.6672 114.441 80.811 114.298 80.9979C113.797 81.688 113.21 82.0331 112.666 81.7743C112.037 81.4868 111.836 80.8973 111.851 80.2215C111.879 79.1144 112.008 78.0648 112.638 77.0871C112.981 76.5552 113.439 76.2676 114.012 76.0951C114.126 76.0663 114.312 76.0663 114.398 76.1238C114.913 76.4833 115.214 77.159 115.972 77.159C116.001 77.159 116.058 77.4897 116.058 77.6622C116.073 78.5105 116.001 79.3588 116.087 80.1928C116.13 80.6528 116.416 81.0698 116.616 81.5299ZM114.47 77.4897C114.284 77.6622 114.083 77.7629 114.012 77.921C113.783 78.5249 113.582 79.1288 113.439 79.747C113.382 79.9915 113.497 80.279 113.525 80.5378C113.768 80.394 114.112 80.3078 114.241 80.0921C114.713 79.3157 114.756 78.4674 114.47 77.4897Z" fill="black" fill-opacity="0.25"/>
<path d="M101.89 81.5297C100.902 82.1192 100.63 82.0185 100.301 81.0121C100.258 80.8539 100.115 80.7389 100.015 80.6095C99.886 80.7102 99.7286 80.7964 99.657 80.9402C99.3136 81.5153 98.8842 81.9754 98.1543 81.8172C97.8824 81.7597 97.5246 81.6016 97.3958 81.3715C96.7518 80.1926 97.3099 77.1732 98.5837 76.3968C99.3279 75.9511 99.6714 76.023 100.201 76.6987C100.344 76.8856 100.63 77.0294 100.859 77.0438C101.303 77.0582 101.389 77.3026 101.374 77.6477C101.346 78.4816 101.217 79.3155 101.289 80.135C101.346 80.5808 101.675 81.0408 101.89 81.5297ZM98.7411 80.6814C99.0273 80.5089 99.3136 80.437 99.4567 80.2501C99.9862 79.5599 99.9576 78.7404 99.9003 77.9352C99.886 77.8202 99.7572 77.6477 99.6427 77.6189C99.5712 77.5902 99.3851 77.7339 99.3279 77.849C98.8556 78.6685 98.598 79.5599 98.7411 80.6814Z" fill="black" fill-opacity="0.25"/>
<path d="M61.9314 81.6594C61.9887 81.6162 61.9744 81.645 61.9457 81.645C60.4716 81.7744 60.3142 81.5731 60.4144 80.0347C60.4859 79.057 60.3858 78.0793 60.4001 77.1016C60.4001 76.9003 60.5146 76.584 60.6577 76.5121C61.0441 76.3396 61.5307 75.8939 61.9028 76.4115C62.2177 76.8572 62.4037 76.7853 62.8044 76.5552C63.1336 76.3683 63.6202 76.2677 63.978 76.3683C64.5505 76.5121 64.6793 77.0297 64.6363 77.6048C64.5648 78.525 64.5362 79.4452 64.4932 80.3798C64.4789 80.581 64.4789 80.7967 64.5505 80.9836C64.7365 81.4437 64.7651 81.7888 64.1784 81.9182C63.7633 82.0045 63.1765 81.645 63.1479 81.2137C63.1193 80.768 63.1479 80.3079 63.1622 79.8621C63.1909 79.2295 63.2624 78.6113 63.2481 77.9786C63.2338 77.5617 63.0191 77.2741 62.5039 77.3316C62.0316 77.3748 61.9028 77.6336 61.9171 78.0649C61.9314 79.2151 61.9314 80.3798 61.9314 81.6594Z" fill="black" fill-opacity="0.25"/>
<path d="M86.3328 79.6319C86.5046 80.1639 86.5618 80.6096 86.7908 80.9259C87.1772 81.4579 87.8356 81.3717 88.3508 80.8253C88.4939 80.6815 88.68 80.5377 88.866 80.4946C88.9519 80.4802 89.1952 80.7534 89.1809 80.8684C89.1522 81.0841 89.0521 81.386 88.8803 81.4723C87.993 81.9755 87.0627 82.1481 86.1038 81.6161C85.2595 81.1416 85.0162 80.3652 85.0162 79.4738C85.0018 77.8347 85.9035 76.5695 87.2631 76.1813C88.0073 75.9656 88.7086 76.2244 89.0521 76.742C89.3669 77.2021 89.4528 77.9785 89.3097 78.5392C89.1379 79.1718 88.5368 79.6032 87.7926 79.6319C87.3633 79.6319 86.9482 79.6319 86.3328 79.6319ZM86.4616 78.8699C87.3919 79.0856 87.6638 78.5536 87.9357 78.1223C88.0216 77.9929 87.9214 77.6478 87.8069 77.5328C87.7068 77.4465 87.3347 77.4896 87.2345 77.6047C86.9482 77.9641 86.7479 78.3811 86.4616 78.8699Z" fill="black" fill-opacity="0.25"/>
<path d="M75.0982 81.4293C74.5114 81.9469 73.9389 81.7025 73.3235 80.466C73.1661 80.7392 73.0516 80.9549 72.9085 81.1561C72.6652 81.5156 72.4648 82.0044 71.9353 81.9325C71.4201 81.8607 70.9907 81.6306 70.8333 81.0267C70.4898 79.8046 70.5327 78.5825 70.776 77.3604C70.8905 76.8284 71.5059 76.5409 71.9925 76.7853C72.107 76.8428 72.1643 77.1303 72.1643 77.3173C72.1643 78.0937 72.0927 78.8701 72.1357 79.6321C72.15 79.9196 72.3933 80.1928 72.5364 80.4804C73.1518 80.2216 73.209 79.8334 73.2233 79.3445C73.252 78.5394 73.3665 77.7342 73.4666 76.9434C73.5668 76.1814 74.1679 76.5121 74.54 76.5265C75.0552 76.5409 74.8406 77.0009 74.8406 77.3029C74.7976 78.41 74.7261 79.5171 74.7404 80.6242C74.7118 80.8973 74.9551 81.1705 75.0982 81.4293Z" fill="black" fill-opacity="0.25"/>
<path d="M78.9767 80.1926C79.1055 80.5377 79.3488 80.8396 79.2773 81.0409C79.1914 81.2997 78.9052 81.5729 78.6332 81.6592C76.8872 82.2774 75.7423 81.4147 75.6135 80.2357C75.4847 78.9849 75.7995 77.849 76.5294 76.8138C76.9301 76.2387 77.4024 75.9368 78.1323 75.9368C78.7048 75.9368 79.0912 76.2099 79.2343 76.6413C79.3345 76.9432 79.1914 77.4033 79.0483 77.7196C78.8908 78.0647 78.576 78.3522 78.3184 78.7117C77.8032 78.3235 77.3309 78.266 76.9731 78.9561C76.5867 79.7038 76.6153 80.5233 77.0589 80.8828C77.5312 81.2566 77.932 81.1272 78.9767 80.1926Z" fill="black" fill-opacity="0.25"/>
<path d="M128.266 80.1496C128.381 80.5665 128.61 80.9403 128.495 81.1129C128.309 81.4148 127.937 81.7311 127.608 81.7743C125.075 82.0762 124.574 80.6528 124.932 78.7549C125.132 77.7197 125.59 76.7133 126.563 76.095C127.021 75.8074 128.109 75.9081 128.366 76.3251C128.681 76.8283 128.624 77.3459 128.252 77.8203C128.109 78.0073 128.009 78.2517 127.851 78.4386C127.751 78.5536 127.536 78.683 127.422 78.6543C126.592 78.4674 126.277 78.5824 126.062 79.3732C125.962 79.7326 125.991 80.1927 126.148 80.5234C126.506 81.2567 126.907 81.2998 127.579 80.7966C127.751 80.6528 127.923 80.4659 128.266 80.1496Z" fill="black" fill-opacity="0.25"/>
<path d="M117.647 80.5665C117.518 79.4738 117.447 78.3811 117.26 77.3171C117.146 76.627 117.604 76.6701 117.976 76.5695C118.849 76.3394 119.15 76.6845 119.007 77.5759C118.863 78.3955 118.835 79.2294 118.778 80.0489C118.72 80.811 118.692 81.573 118.634 82.335C118.577 82.982 117.447 84.046 116.659 84.1322C116.116 84.1898 115.557 84.2041 115.028 84.1179C114.799 84.0747 114.527 83.7297 114.47 83.4709C114.427 83.2983 114.684 82.9533 114.885 82.867C115.056 82.7951 115.4 82.9101 115.572 83.0683C115.93 83.3846 116.287 83.629 116.774 83.3846C117.26 83.1402 117.561 82.752 117.561 82.1769C117.561 81.6593 117.561 81.1273 117.561 80.6097C117.575 80.5665 117.618 80.5665 117.647 80.5665Z" fill="black" fill-opacity="0.25"/>
<path d="M91.9002 77.0871C92.3868 76.6126 92.8305 76.0519 93.5174 76.627C93.9181 76.9721 94.0613 77.4465 93.8752 77.9641C93.6748 78.5105 93.2455 78.7405 92.6158 78.6399C92.6015 78.4674 92.6444 78.2661 92.5728 78.1079C92.4584 77.8635 92.2866 77.6622 92.1435 77.4465C91.9718 77.6478 91.6712 77.8491 91.6712 78.0648C91.6283 79.1287 91.6712 80.2071 91.6426 81.271C91.6426 81.4436 91.3993 81.7743 91.2705 81.7743C90.5549 81.7886 90.1542 81.5874 90.1542 80.8685C90.1685 80.3077 90.2687 79.747 90.2687 79.1862C90.2687 78.6255 90.24 78.0648 90.1255 77.5184C90.0397 77.159 90.0397 76.8858 90.4118 76.7708C90.8268 76.6557 91.2848 76.2244 91.6855 76.8283C91.7141 76.9145 91.7857 76.9721 91.9002 77.0871Z" fill="black" fill-opacity="0.25"/>
<path d="M96.2366 81.6448C96.0076 81.6736 95.6498 81.7311 95.3063 81.7455C94.8627 81.7742 94.5907 81.2998 94.6194 80.7965C94.6909 79.6751 94.7768 78.5392 94.7339 77.4178C94.7052 76.6701 95.2634 76.7851 95.6212 76.6989C95.9504 76.627 96.2938 76.8283 96.2366 77.2596C96.165 77.8347 95.979 78.3954 95.9933 78.9706C96.0076 79.8476 96.1507 80.739 96.2366 81.6448Z" fill="black" fill-opacity="0.25"/>
<path d="M117.847 75.5344C117.389 75.5632 117.046 75.3906 117.017 74.8443C116.988 74.4129 117.575 73.7803 117.947 73.7659C118.348 73.7516 118.806 74.226 118.763 74.6574C118.706 75.175 118.506 75.5776 117.847 75.5344Z" fill="black" fill-opacity="0.25"/>
<path d="M96.0792 75.0598C95.7644 75.0598 95.3493 75.0598 94.9915 75.0598C94.8627 74.6859 94.7196 74.2834 94.5908 73.9095C94.8198 73.7226 95.0774 73.4782 95.3637 73.2769C95.4352 73.2194 95.6213 73.2625 95.7214 73.32C96.0077 73.507 96.2653 73.7226 96.5515 73.9527C96.437 74.2259 96.2796 74.6141 96.0792 75.0598Z" fill="black" fill-opacity="0.25"/>
</svg>
