<svg width="209" height="88" viewBox="0 0 209 88" fill="none" xmlns="http://www.w3.org/2000/svg">
<path d="M208.997 49.9316C208.997 49.7253 208.979 49.5003 208.96 49.2752C208.828 47.7187 208.169 46.7248 207.529 46.1247C207.247 45.4121 206.701 44.4932 205.609 43.9119C205.628 43.1243 205.477 42.4679 205.383 42.0366C205.364 41.9428 205.346 41.8303 205.327 41.7928C205.251 41.3052 205.27 40.7051 205.308 40.0113C205.308 39.8425 205.327 39.655 205.327 39.4862C205.458 35.3981 203.463 31.7788 200.018 29.8285C198.098 28.7408 195.068 27.8594 191.133 29.3409C191.566 28.1407 191.773 26.9405 191.98 25.8528C192.018 25.6091 192.075 25.3653 192.112 25.1215C192.658 22.2898 191.284 20.2082 190.456 18.9705C190.362 18.8205 190.267 18.6892 190.173 18.5392C188.761 16.3264 186.597 15.1262 184.093 15.1824C181.157 15.2387 178.822 16.4951 176.865 17.6766C173.665 19.6081 173.307 22.196 173.514 23.94C173.382 24.4276 173.25 24.9339 173.119 25.4403C172.686 27.0718 172.272 28.6095 171.763 30.1098C171.519 30.8224 171.274 31.535 171.01 32.2663C168.789 29.7159 165.796 28.5533 162.389 28.9471C159.339 29.3034 156.497 30.5223 154.05 32.5101C153.353 31.5725 152.582 30.8411 152.036 30.316C151.358 29.6784 150.624 29.2284 149.89 28.9471C150.511 27.053 150.982 24.8589 150.492 22.4398C149.927 19.6644 148.365 17.3953 146.087 16.0826C142.887 14.2448 139.838 15.4262 138.125 16.2138C137.786 15.52 137.409 14.9011 137.052 14.3573C136.035 12.8008 134.605 11.7319 132.685 11.113C130.331 10.3442 127.79 10.3629 125.136 11.1881C121.145 12.4258 117.606 14.4511 114.576 17.2453C112.034 19.5894 109.569 22.196 107.197 24.9902C106.067 26.3217 105.22 27.7281 104.392 29.0971C103.978 29.7722 103.582 30.4286 103.168 31.0286C103.168 31.0474 103.149 31.0474 103.149 31.0662C102.698 31.1037 102.265 31.1224 101.869 31.1224C101.455 31.1224 101.041 31.1224 100.627 31.1224C99.0082 31.1224 97.4834 31.1037 96.034 30.9349C95.3187 30.8411 94.4151 30.4661 93.4362 30.0722C93.3986 30.0535 93.3421 30.0347 93.3045 30.016C93.2292 29.8472 93.1351 29.6034 93.0598 29.4159C92.7774 28.647 92.4009 27.6906 91.7044 26.753C91.6668 26.7155 91.6291 26.6592 91.6103 26.6217C91.215 26.0779 90.8009 25.6653 90.3867 25.3465C91.0456 24.0151 91.5727 22.6273 91.9303 21.2584C93.8504 13.9072 91.6668 4.34325 83.8548 1.06148C79.8076 -0.645031 74.8757 -0.288725 69.6049 2.09289C61.1153 5.91849 53.7739 13.3446 47.8255 24.1463C45.0771 29.1346 42.8182 34.3667 40.6535 39.4112L40.5593 39.5987C39.4675 42.1304 38.3381 44.7558 37.171 47.2687C36.9828 47.6625 36.8134 48.0563 36.6628 48.4501C36.3616 49.1627 35.7216 50.6629 35.3262 50.9442C34.8745 51.1318 34.0274 51.1318 33.7262 51.1318H33.5191C29.6978 51.1318 25.726 51.1318 21.7164 51.9006C17.9328 52.632 12.4926 54.151 8.0313 57.2077C3.00527 60.6583 0.238125 65.4027 0.0122355 70.9161C-0.213654 76.542 2.70408 82.1491 7.44776 85.2058C10.3278 87.0624 13.8103 88 17.5939 88C20.6999 88 23.9941 87.3624 27.3448 86.106C38.564 81.849 45.8489 72.9977 49.9714 66.3404C49.9902 66.3029 50.009 66.2654 50.0467 66.2279C61.3412 67.7093 71.9203 71.7225 83.1018 75.9606C88.5796 78.0422 94.2457 80.18 99.9682 81.9803C107.008 84.1932 115.366 86.2935 123.95 85.0558C130.162 84.1557 136.054 81.4177 141.024 77.1608C145.843 73.0164 149.363 67.7844 151.226 62.0085C153.372 63.2837 155.97 63.6962 158.586 63.0211C161.297 62.3273 163.255 60.9583 164.817 59.3643C165.42 60.3582 166.173 61.2208 167.038 61.8397C167.208 61.9897 167.584 62.271 168.111 62.496C170.897 63.6962 173.796 63.5087 176.319 61.971C177.505 61.2396 178.615 60.3582 179.669 59.2705C182.098 62.9086 186.051 64.0713 190.362 62.3835C190.907 62.1585 191.416 61.9334 191.924 61.6709C192.978 62.4585 194.089 62.7398 194.992 62.8336C197.025 63.0211 199.021 62.5148 200.903 61.3709C202.861 60.1707 204.329 58.6329 205.628 57.264C205.873 57.0014 206.117 56.7576 206.362 56.4951C208.188 54.526 209.054 52.407 208.997 49.9316ZM84.0054 46.7436C83.8924 46.5748 83.7607 46.406 83.6101 46.256C83.6665 46.0497 83.723 45.8434 83.7983 45.6184C84.363 46.0122 84.9654 46.3685 85.6054 46.6686C87.3749 47.5125 89.4455 48.1125 91.7609 48.4689C93.5304 48.7314 95.2622 48.6751 96.7869 48.6001C97.0128 48.5814 97.2575 48.5814 97.4834 48.5814C97.8034 48.5626 98.1046 48.5439 98.4246 48.5251C98.4623 50.2316 98.6505 51.9569 98.9705 53.7009C99.4788 56.3638 100.834 58.5392 101.832 60.1144C102.472 61.1458 103.206 62.0647 104.034 62.8523C97.0693 62.1397 90.1232 60.7333 83.2524 59.0455C84.4383 57.639 85.2289 55.9138 85.5301 54.001C85.9443 51.3943 85.3984 48.8064 84.0054 46.7436Z" fill="white"/>
<path d="M69.6991 32.0037C66.7625 33.579 64.4848 35.9981 62.7154 38.7735C61.3977 40.8551 60.1365 43.0679 59.4023 45.412C58.6682 47.7749 58.5364 50.4003 59.1576 52.857C60.1176 56.645 62.1883 57.5077 65.4637 56.5513C67.0073 56.1012 68.3626 54.9385 69.7932 54.0946C70.0568 53.9446 70.358 53.7946 70.6215 53.6446C70.7344 53.9071 70.9038 54.1509 70.9603 54.4322C71.2803 56.0637 72.9745 57.1514 74.3298 56.5513C75.4593 56.045 76.6828 55.6136 77.6805 54.901C79.5629 53.5696 80.9936 52.5382 80.2783 50.2691C80.1088 50.4191 79.9582 50.5503 79.7888 50.6816C78.8476 51.413 77.9252 52.1631 76.984 52.8757C76.5134 53.232 76.1181 53.157 75.6852 52.6319C75.0452 51.8631 75.4028 51.0379 75.5722 50.3628C76.024 48.7126 76.6452 47.1186 77.304 45.5433C77.9064 44.0618 78.6217 42.6366 79.2618 41.1926C79.6382 40.33 79.4688 39.9174 78.5841 39.5424C77.5488 39.0923 75.6663 39.2798 75.0263 40.18C74.2734 41.2301 73.7275 42.4491 73.238 43.6493C72.4663 45.5996 71.8827 47.6436 71.0733 49.5939C70.6403 50.6254 69.6991 51.3567 68.5885 51.5443C66.2919 51.9193 65.2754 49.4627 65.6143 47.8499C65.8966 46.4622 66.3484 45.0745 66.8943 43.7618C67.6473 41.9615 68.7391 40.33 70.245 39.1111C72.8051 37.0482 75.6287 36.6919 78.5464 38.4172C79.2429 37.7234 79.2617 37.7234 79.2429 35.623C79.2241 33.804 78.3582 32.435 76.7958 31.6099C74.4051 30.3722 71.9203 30.8035 69.6991 32.0037Z" fill="url(#paint0_linear_35_381)"/>
<path d="M91.328 65.1027C83.083 63.565 74.8945 61.7272 66.7249 59.8706C61.2847 58.633 55.8257 57.414 50.3855 56.1763C50.009 56.1013 49.6137 55.9888 49.3878 55.6887C49.0678 55.2574 49.2561 54.6761 49.4443 54.1698C52.1173 47.3437 54.8092 40.5176 57.4822 33.6728C59.3646 28.8721 61.2847 24.0151 64.1836 19.7582C67.0825 15.5012 71.1297 11.7882 76.0616 10.2504C78.057 9.63158 80.3911 9.40654 82.123 10.5692C85.1913 12.5945 84.5325 17.4328 82.3677 20.3958C79.7323 17.8266 75.1392 17.6016 72.2591 19.8707C70.3203 21.3897 69.2285 24.2401 70.4144 26.3967C71.4873 28.3095 73.9533 29.0408 76.1557 28.8346C82.8006 28.2345 87.149 21.0709 87.3184 14.4136C87.3749 12.1632 87.0361 9.81911 85.756 7.96257C84.1748 5.67471 81.3324 4.49328 78.5464 4.41827C75.7604 4.34326 73.0497 5.2809 70.5461 6.51859C62.0753 10.738 55.9198 18.5205 51.402 26.828C46.8842 35.1168 43.7594 44.0807 39.6181 52.557C39.2605 53.2884 38.8652 54.0385 38.2063 54.5073C37.4345 55.0699 36.418 55.1262 35.458 55.1824C24.6718 55.7638 6.11124 56.6639 4.51119 70.5973C4.32295 72.2476 4.53002 73.9541 5.20768 75.4918C6.78891 79.0736 10.629 81.3052 14.5444 81.7553C18.441 82.2054 22.3753 81.0989 25.9518 79.5237C33.4438 76.2044 39.957 70.6348 44.0983 63.6025C44.9077 62.2335 45.7548 60.6958 47.2795 60.2082C48.089 59.9457 48.9737 60.0394 49.8208 60.1519C68.3814 62.5336 85.3042 71.6662 103.244 76.9546C108.401 78.4735 113.729 79.6925 119.094 79.4299C130.539 78.8674 141.268 70.9911 145.221 60.2832C145.24 60.2457 145.259 60.2082 145.259 60.1707C137.428 65.084 128.11 67.2968 118.868 67.7094C109.663 68.1032 100.42 66.7905 91.328 65.1027ZM35.8721 60.1707C35.0439 61.8772 34.2721 63.64 33.2932 65.2715C32.4273 66.6967 31.392 68.0282 30.319 69.3034C29.0955 70.7661 27.8531 72.2663 26.4224 73.504C24.0506 75.5293 21.3964 77.1233 18.2716 77.8922C16.728 78.2673 15.1845 78.436 13.7726 78.0422C10.7608 77.1983 10.1772 75.0042 10.4596 72.2476C10.5726 71.1974 10.7984 70.091 11.269 69.1721C13.2456 65.384 16.0692 62.5336 20.3234 61.2959C21.8105 60.8645 23.2412 60.227 24.7283 59.8519C26.253 59.4768 27.8154 59.233 29.3778 59.083C31.4108 58.8767 33.4627 58.8205 35.5145 58.6892C35.7027 58.6705 35.891 58.708 36.2675 58.7267C36.1169 59.3081 36.0604 59.7769 35.8721 60.1707Z" fill="url(#paint1_linear_35_381)"/>
<path d="M198.832 52.9321C198.399 53.2884 197.816 53.5884 197.289 53.4009C196.799 53.2321 196.517 52.6883 196.498 52.1632C196.479 51.6381 196.668 51.1506 196.837 50.663C197.759 48.1876 198.701 45.731 199.623 43.2556C199.811 42.7493 199.999 42.1867 199.811 41.6991C199.642 41.2678 199.19 40.9677 198.738 40.874C197.439 40.6114 196.253 41.6803 195.576 42.8055C194.032 45.3372 193.731 48.5252 191.943 50.9068C191.529 51.4694 190.983 51.9944 190.286 52.1257C189.251 52.332 188.216 51.5069 187.858 50.513C187.5 49.5191 187.651 48.4314 187.877 47.4C188.479 44.6996 189.684 42.0366 191.849 40.3114C194.013 38.5861 197.308 38.0985 199.567 39.6738C200.056 37.9298 199.999 35.8857 198.814 34.5355C197.872 33.4666 196.385 32.9977 194.973 33.0915C193.562 33.1665 192.206 33.7479 191.002 34.4792C185.674 37.7047 183.303 43.4994 179.557 48.1689C178.747 49.1628 177.806 50.0629 176.94 51.0193C176.601 51.3944 176.187 51.6756 175.773 51.3381C175.453 51.0756 175.058 50.5505 175.095 50.2129C175.283 49.1065 175.547 48.0001 175.98 46.9874C176.921 44.7558 177.956 42.543 179.029 40.3489C180.065 38.2673 181.157 36.2045 182.286 34.1604C183.98 31.1225 185.543 28.0282 186.465 24.6527C186.691 23.8276 186.747 22.9274 186.71 22.0648C186.634 20.3958 185.204 19.0643 183.284 19.6269C182.342 19.9082 181.364 20.152 180.535 20.6396C179.349 21.3522 177.994 21.7647 177.938 23.8088C177.881 25.9466 176.978 28.0657 176.338 30.1661C175.66 32.4164 174.888 34.6292 174.098 36.8421C173.533 38.4173 172.855 39.9551 172.196 41.4928C171.989 41.9804 171.782 42.5055 171.443 42.918C170.201 44.3995 168.507 45.1684 166.737 45.8247C166.474 45.9185 166.173 45.8622 165.721 45.8997C165.871 45.0559 165.947 44.3433 166.135 43.6682C166.398 42.7305 166.097 42.0742 165.325 41.5491C163.707 40.4051 161.843 41.4928 161.184 42.6742C160.657 43.5931 160.356 44.6433 160.055 45.6747C159.754 46.7061 160.224 48.0938 160.902 48.5064C161.259 48.7127 161.598 48.9377 161.937 49.144C161.109 50.9068 160.525 51.7319 159.208 52.5945C157.419 53.7572 155.801 52.8758 155.386 51.0568C154.953 49.2003 155.198 47.1937 156.064 45.4309C157.231 43.0868 158.812 40.9865 161.222 39.7488C162.427 39.1299 163.763 38.7361 165.175 38.9424C165.984 39.0549 166.794 39.2237 167.584 39.355C167.716 39.0362 167.829 38.8111 167.904 38.5861C168.563 36.4858 167.641 33.9541 165.25 33.5791C163.5 33.2978 161.674 33.3728 159.923 34.0854C156.553 35.4731 154.257 38.0235 152.582 41.0803C150.925 44.0995 148.911 46.8186 146.727 49.4441C146.181 50.1004 145.56 50.663 144.939 51.2443C144.355 51.8069 143.791 51.5256 143.659 50.9068C143.508 50.1942 143.508 49.369 143.697 48.6752C143.885 47.9251 144.355 47.2312 144.732 46.5373C145.748 44.6996 146.821 42.8993 147.819 41.0615C148.61 39.5988 149.381 38.0985 150.059 36.5796C150.53 35.5669 150.172 34.6105 149.4 33.8979C148.007 32.6414 145.899 32.4539 144.243 33.354C143.188 33.9166 142.172 34.5542 141.137 35.1356C140.892 35.2668 140.628 35.3231 140.214 35.4731C140.346 35.0606 140.384 34.8543 140.497 34.648C141.645 32.4164 142.887 30.2036 143.96 27.9345C144.788 26.1717 145.391 24.2964 145.297 22.3273C145.203 20.3208 144.092 19.3831 142.059 19.5707C140.327 19.7207 138.991 20.6396 137.598 21.4459C137.052 21.7647 136.318 22.0835 136.449 23.0587C136.562 23.8838 136.6 24.784 136.43 25.5903C135.79 28.8346 134.925 32.0038 133.645 35.0606C132.892 36.8796 132.27 38.7549 131.329 40.4614C129.767 43.2743 127.997 45.9935 125.475 48.0751C123.988 49.3128 122.425 50.4942 120.75 51.4694C119.545 52.182 118.152 52.6883 116.778 52.9321C115.442 53.1571 113.973 53.2321 112.844 52.0695C111.282 50.4567 110.924 48.4501 111.376 46.4061C111.903 44.062 112.731 41.7741 113.597 39.5425C113.936 38.6424 114.218 37.6297 115.423 37.1796C117.173 36.5045 118.792 35.5481 120.468 34.7043C121.183 34.348 121.917 34.0104 122.557 33.5603C124.27 32.3601 125.983 31.1412 127.602 29.8285C130.764 27.2781 133.117 24.1464 133.946 20.077C134.303 18.333 133.287 16.1576 131.8 15.445C130.557 14.8449 129.259 14.7699 127.978 14.9762C123.894 15.6325 120.505 17.7516 117.493 20.452C115.216 22.4961 113.032 24.6714 111.093 27.0343C109.343 29.1721 107.987 31.6475 106.444 33.9541C106.03 34.5917 105.672 35.3231 104.731 35.3606C103.62 35.4169 102.491 35.5294 101.38 35.5294C98.8764 35.5481 96.354 35.6607 93.888 34.9856C91.215 34.2542 89.0879 32.9227 88.1655 30.1661C88.0337 29.7722 87.9396 29.3784 87.8078 28.8721C86.3019 29.7347 85.1537 30.8037 84.2501 32.0976C81.4453 36.0545 83.2148 39.7488 87.3184 41.324C88.429 41.7554 89.6903 41.8116 90.8762 42.1304C93.2104 42.768 95.5634 42.5242 97.9164 42.2617C99.2341 42.1117 100.533 41.8491 101.832 41.7554C103.131 41.6616 103.319 41.9991 103.074 43.3118C102.905 44.1932 102.773 45.0746 102.754 45.956C102.698 48.2814 102.886 50.5505 103.394 52.8571C103.695 54.226 104.241 55.3887 104.9 56.5327C106.105 58.5955 108.138 59.6456 110.359 60.0395C112.524 60.4333 114.783 60.1895 116.759 59.1206C118.228 58.3142 119.545 57.2453 120.938 56.2889C122.294 55.3512 123.442 54.2448 124.421 52.9133C124.854 52.332 125.531 51.9382 126.265 51.3006C126.265 52.2007 126.265 52.8383 126.265 53.4947C126.265 55.1074 127.263 56.2139 128.863 56.6077C130.068 56.889 131.781 55.9513 132.44 54.9762C132.816 54.4136 133.005 53.7572 133.155 53.0821C133.927 49.4253 134.341 46.1248 136.336 42.8243C137.089 41.5678 138.294 40.5552 139.367 39.4863C139.819 39.0549 140.421 38.7361 141.005 38.4736C141.231 38.3798 141.682 38.4923 141.871 38.6799C142.002 38.8111 141.984 39.2612 141.889 39.4863C140.892 41.5866 139.875 43.6869 138.859 45.7685C137.654 48.2439 136.581 50.7755 136.11 53.5134C135.941 54.4886 135.922 55.5763 136.732 56.3076C137.522 57.0202 138.539 57.3765 139.649 57.0015C142.153 56.1576 143.979 54.4511 145.485 52.3695C146.746 50.6067 148.083 48.9002 149.589 46.9124C149.683 47.5125 149.796 47.8501 149.796 48.1689C149.72 50.0441 149.532 51.9007 150.153 53.7572C150.662 55.2575 152.6 57.0765 154.125 57.1327C156.535 57.2265 158.568 56.5139 160.262 54.7699C161.787 53.1946 162.841 51.1506 163.989 49.3128C164.911 47.8313 166.624 47.4937 167.999 46.6686C168.544 46.3311 169.222 46.2185 169.843 46.0123C169.523 47.4937 168.996 48.6939 168.601 49.9316C168.224 51.1318 167.961 52.3508 167.697 53.5697C167.34 55.2762 168.187 56.5514 169.881 57.0202C171.443 57.4703 172.629 56.6264 173.683 55.7825C175.359 54.4511 176.789 52.8758 177.994 51.1131C178.484 50.4005 181.401 47.7563 181.401 47.6438C181.213 49.4253 181.006 51.2443 181.458 52.9696C181.891 54.6949 183.114 56.3451 184.846 56.7764C186.051 57.0765 187.331 56.7764 188.441 56.2326C189.552 55.6888 190.531 54.9199 191.547 54.226C191.679 54.1323 191.811 54.0573 191.962 54.0573C192.451 54.0385 192.545 54.7136 192.677 55.1824C192.94 56.0826 193.957 56.6264 194.898 56.6264C195.839 56.6264 196.743 56.1763 197.534 55.6888C199.378 54.5636 200.997 53.1009 202.315 51.3756C202.334 51.3381 202.371 51.3006 202.39 51.2631C203.03 50.4004 203.576 49.3128 203.143 48.3376C201.242 49.1815 200.489 51.5819 198.832 52.9321ZM120.901 27.4656C122.388 25.6841 123.912 23.9401 125.55 22.2898C126.19 21.6335 127.113 21.2397 127.96 20.8271C128.562 20.5271 129.353 20.3208 129.804 21.0334C130.294 21.8023 129.88 22.5524 129.447 23.2275C127.884 25.6654 125.588 27.2594 123.141 28.6846C121.898 29.3972 120.637 30.0348 119.376 30.7099C119.263 30.5974 119.169 30.4849 119.056 30.3723C119.658 29.3784 120.166 28.347 120.901 27.4656Z" fill="url(#paint2_linear_35_381)"/>
<path d="M159.019 45.9373C158.831 45.9935 158.756 45.9748 158.718 46.031C157.288 47.7375 157.005 49.8191 157.043 51.9194C157.043 52.4445 157.626 52.7446 158.172 52.3695C158.869 51.8632 159.528 51.3006 160.186 50.7568C160.714 50.3254 160.732 49.8566 160.299 49.3128C159.622 48.4877 159.076 47.6063 159.245 46.4623C159.264 46.2936 159.113 46.1248 159.019 45.9373Z" fill="#FF0000"/>
<path d="M205.233 50.0254C205.233 49.8941 205.214 49.7441 205.214 49.6128C205.176 49.294 205.101 48.9189 204.818 48.7689C204.724 48.7127 204.593 48.6939 204.498 48.6189C203.934 48.2438 204.348 46.6123 203.105 47.4C202.39 47.85 201.731 48.3939 201.148 48.994C200.583 49.5753 200.131 50.2692 199.642 50.9068C199.529 50.8505 199.435 50.7942 199.322 50.738C199.397 50.4754 199.435 50.2129 199.529 49.9691C200.282 48.0938 201.072 46.2185 201.75 44.3245C201.976 43.6681 201.712 42.993 201.599 42.3554C201.449 41.3615 201.524 40.3864 201.562 39.3925C201.637 36.8046 200.451 34.4229 198.155 33.1102C195.971 31.8725 193.618 32.2476 191.472 33.3165C188.648 34.7042 186.446 36.8608 184.677 39.4487C183.133 41.6991 181.589 43.9494 180.008 46.181C179.688 46.6498 179.236 47.0249 178.841 47.4562C178.766 47.4 178.691 47.3624 178.596 47.3062C178.691 46.9499 178.709 46.5936 178.86 46.2748C180.065 43.7994 181.288 41.3428 182.493 38.8674C184.131 35.4919 185.844 32.1351 187.35 28.7033C187.933 27.3718 188.14 25.8716 188.423 24.4464C188.724 22.9086 187.764 21.7835 186.992 20.5833C186.333 19.5331 185.43 18.933 184.168 18.9705C182.154 19.008 180.479 19.9269 178.803 20.9208C177.618 21.6334 176.978 22.4773 177.316 23.8838C177.354 24.0526 177.335 24.2589 177.279 24.4464C176.639 26.753 176.093 29.0784 175.321 31.3287C174.361 34.1604 173.288 36.9546 172.14 39.73C171.462 41.3803 171.104 43.2931 169.034 44.0432C168.187 44.3432 168.036 44.4182 167.678 43.5181C167.584 43.2931 167.471 43.0493 167.283 42.8993C166.85 42.5617 166.511 42.1304 166.925 41.6803C167.076 41.5115 167.716 41.6428 168.074 41.7741C168.958 42.0741 169.316 41.9804 169.561 41.099C170.069 39.3737 170.05 37.761 169.071 36.0732C167.622 33.5978 165.532 32.3976 162.803 32.7164C160.092 33.0352 157.645 34.2167 155.593 36.1482C153.579 38.0422 152.262 40.3676 150.906 42.7305C150.04 44.2307 148.798 45.5059 147.631 47.0249C147.593 46.7436 147.555 46.6686 147.593 46.6123C148.911 44.212 150.266 41.8303 151.565 39.43C151.829 38.9236 152.054 38.3423 152.073 37.7797C152.111 35.7169 150.756 34.3292 149.419 33.054C148.346 32.0413 146.859 32.1538 145.466 32.3789C145.221 32.4164 144.845 32.3976 144.713 32.2476C144.6 32.1163 144.675 31.7413 144.77 31.5162C144.995 30.9912 145.315 30.4848 145.522 29.941C146.332 27.7656 147.254 25.5528 146.784 23.1712C146.464 21.6147 145.635 20.1707 144.186 19.3268C142.511 18.3704 140.854 19.0643 139.329 19.7957C138.106 20.377 136.976 21.1646 135.715 21.9335C135.659 21.7085 135.546 21.4834 135.546 21.2771C135.602 19.4394 134.849 17.9016 133.87 16.4014C133.268 15.4825 132.459 14.9949 131.499 14.6761C129.729 14.0948 127.997 14.226 126.247 14.7699C122.821 15.8388 119.752 17.5828 117.136 20.0019C114.632 22.3086 112.279 24.8027 110.077 27.4093C108.608 29.1534 107.573 31.2349 106.293 33.129C105.879 33.7291 105.672 34.6105 104.731 34.6855C103.771 34.7605 102.811 34.873 101.851 34.873C99.7611 34.8543 97.6528 34.9105 95.5821 34.648C94.208 34.4792 92.8903 33.8791 91.5914 33.354C89.6714 32.5851 89.7843 30.3911 88.7113 29.0033C88.2784 28.422 88.1466 28.0469 87.3748 28.4783C85.7371 29.3972 84.4383 30.6911 83.4406 32.2101C82.6123 33.4665 81.8217 34.948 82.1417 36.4482C82.7629 39.4487 84.3818 41.9241 87.2242 43.2556C88.8055 44.0057 90.5937 44.4745 92.3256 44.737C93.9633 44.9808 95.6574 44.8683 97.3328 44.7933C98.7634 44.737 100.175 44.5495 101.606 44.4182C102.152 44.362 102.396 44.6058 102.321 45.1684C102.039 47.7938 102.171 50.3817 102.66 52.9696C103.018 54.8636 103.997 56.4764 105.013 58.1079C106.971 61.2584 109.851 62.7023 113.427 62.7773C115.649 62.8336 117.682 61.896 119.583 60.7895C121.785 59.5143 123.687 57.8453 125.381 55.97C125.531 55.8013 126.096 55.8013 126.303 55.9513C126.623 56.1951 126.868 56.6076 127.056 56.9827C127.903 58.6705 129.484 59.2893 130.953 59.0455C132.854 58.7455 134.473 57.2452 134.793 55.5575C134.83 55.3887 135.019 55.2387 135.188 55.0136C135.828 56.0638 136.336 57.0765 136.995 57.9578C137.372 58.4642 137.918 59.008 138.482 59.2143C140.515 59.8894 142.398 59.3456 143.866 57.9016C145.41 56.4014 146.746 54.7136 148.195 53.1008C148.346 52.9321 148.591 52.707 148.779 52.7258C148.93 52.7258 149.118 53.0071 149.231 53.2134C149.814 54.3198 150.304 55.4637 150.925 56.5326C152.356 58.9705 154.916 60.0582 157.608 59.3643C162.144 58.2016 163.838 54.3948 166.21 50.8692C166.436 50.5317 166.944 50.3629 167.321 50.1191C167.415 50.2129 167.49 50.2879 167.584 50.3817C167.415 51.2818 167.283 52.1819 167.095 53.0821C166.681 54.9199 167.716 57.7328 169.241 58.8205C169.335 58.8955 169.429 58.9893 169.542 59.0455C171.161 59.7394 172.78 59.6831 174.248 58.7642C176.074 57.639 177.523 56.0826 178.803 54.3573C179.274 53.7197 179.839 53.1571 180.328 52.5945C181.119 54.1323 181.74 55.5387 182.512 56.8327C183.961 59.2706 186.107 59.9644 188.874 58.858C190.173 58.3517 191.378 57.5828 192.714 56.8702C192.846 57.0765 193.072 57.3578 193.26 57.6766C193.712 58.4267 194.296 58.9705 195.218 59.0643C196.536 59.1768 197.722 58.8017 198.832 58.1266C200.677 57.0014 202.07 55.3699 203.557 53.8322C204.705 52.707 205.27 51.5631 205.233 50.0254ZM135.169 23.5838C135.263 23.3587 135.508 23.1899 135.828 22.8336C136.148 25.159 135.565 27.0155 135.075 28.8908C133.964 33.0915 132.308 37.0671 130.256 40.8739C127.47 46.0497 123.442 49.9691 117.832 52.0132C116.816 52.3882 115.611 52.332 114.5 52.2757C113.672 52.2382 113.201 51.3381 113.145 50.1379C113.051 47.9625 113.672 45.9372 114.444 43.9494C114.689 43.3306 115.009 42.7117 115.178 42.0741C115.611 40.4051 116.684 39.4112 118.284 38.7924C121.992 37.3671 125.268 35.2481 128.28 32.6602C130.746 30.5411 132.986 28.272 134.473 25.3465C134.736 24.8027 134.906 24.1651 135.169 23.5838ZM202.447 51.2818C202.428 51.3193 202.39 51.3568 202.371 51.3943C201.072 53.1008 199.435 54.5823 197.59 55.7075C196.78 56.1951 195.896 56.6451 194.955 56.6451C194.013 56.6451 192.997 56.1201 192.733 55.2012C192.602 54.7323 192.489 54.0572 192.018 54.076C191.867 54.076 191.736 54.1698 191.604 54.2448C190.587 54.9386 189.609 55.7075 188.498 56.2513C187.387 56.7952 186.107 57.0952 184.902 56.7952C183.171 56.3638 181.947 54.7136 181.514 52.9883C181.081 51.2631 181.269 49.444 181.458 47.6625C181.439 47.775 178.54 50.4192 178.051 51.1318C176.846 52.8946 175.396 54.4511 173.74 55.8013C172.686 56.6451 171.519 57.489 169.937 57.039C168.262 56.5514 167.396 55.2762 167.754 53.5884C168.017 52.3695 168.281 51.1318 168.657 49.9504C169.053 48.7127 169.561 47.5125 169.9 46.031C169.278 46.2373 168.601 46.3498 168.055 46.6873C166.681 47.5125 164.968 47.85 164.045 49.3315C162.897 51.188 161.843 53.2134 160.318 54.7886C158.624 56.5326 156.591 57.2452 154.182 57.1515C152.657 57.0952 150.718 55.2949 150.21 53.7759C149.588 51.9194 149.777 50.0629 149.852 48.1876C149.871 47.8688 149.758 47.5312 149.645 46.9311C148.139 48.9189 146.821 50.6442 145.541 52.3882C144.035 54.4886 142.209 56.1951 139.706 57.0202C138.595 57.3953 137.579 57.039 136.788 56.3263C135.997 55.6137 135.997 54.5261 136.167 53.5322C136.638 50.7942 137.71 48.2626 138.915 45.7872C139.932 43.6869 140.948 41.6053 141.946 39.505C142.059 39.2799 142.078 38.8299 141.927 38.6986C141.72 38.5111 141.287 38.3798 141.061 38.4923C140.478 38.7549 139.875 39.0549 139.423 39.505C138.35 40.5551 137.146 41.5678 136.393 42.843C134.416 46.1435 133.983 49.4253 133.212 53.1008C133.08 53.7572 132.873 54.4323 132.496 54.9949C131.837 55.9888 130.124 56.9264 128.92 56.6264C127.32 56.2513 126.322 55.1262 126.322 53.5134C126.322 52.8758 126.322 52.2195 126.322 51.3193C125.569 51.9569 124.891 52.3507 124.477 52.9321C123.498 54.2635 122.35 55.3887 120.995 56.3076C119.602 57.264 118.303 58.3517 116.816 59.1393C114.839 60.2082 112.58 60.452 110.416 60.0582C108.194 59.6644 106.161 58.6142 104.957 56.5514C104.279 55.4075 103.752 54.2448 103.451 52.8758C102.942 50.5692 102.754 48.3001 102.811 45.9747C102.829 45.0933 102.98 44.1932 103.131 43.3306C103.375 42.0366 103.187 41.6803 101.888 41.7741C100.571 41.8678 99.2717 42.1304 97.9728 42.2804C95.6198 42.5429 93.2856 42.7867 90.9326 42.1491C89.7655 41.8303 88.5043 41.7741 87.3748 41.3428C83.29 39.7675 81.5205 36.0732 84.3065 32.1163C85.2289 30.8224 86.3771 29.7535 87.8642 28.8908C87.996 29.3972 88.0901 29.791 88.2219 30.1848C89.1443 32.9415 91.2714 34.2729 93.9444 35.0043C96.4104 35.6794 98.914 35.5669 101.436 35.5481C102.547 35.5481 103.676 35.4356 104.787 35.3793C105.71 35.3231 106.067 34.5917 106.5 33.9729C108.044 31.6663 109.399 29.1909 111.15 27.053C113.089 24.6902 115.272 22.5148 117.55 20.4708C120.543 17.7703 123.95 15.6513 128.035 14.9949C129.315 14.7886 130.614 14.8636 131.856 15.4637C133.324 16.1763 134.36 18.3329 134.002 20.0957C133.155 24.1838 130.821 27.2968 127.658 29.8472C126.04 31.1599 124.327 32.3601 122.614 33.5791C121.974 34.0291 121.221 34.3667 120.524 34.723C118.849 35.5669 117.23 36.542 115.479 37.1984C114.274 37.6672 113.992 38.6611 113.653 39.5612C112.787 41.8116 111.978 44.0994 111.432 46.4248C110.961 48.4501 111.338 50.4754 112.9 52.0882C114.03 53.2509 115.498 53.1759 116.835 52.9508C118.209 52.707 119.602 52.2007 120.806 51.4881C122.463 50.5129 124.025 49.3315 125.531 48.0938C128.054 46.0122 129.823 43.3118 131.386 40.4801C132.327 38.7736 132.948 36.8796 133.701 35.0793C134.981 32.0226 135.847 28.8346 136.487 25.6091C136.656 24.7839 136.619 23.9025 136.506 23.0774C136.374 22.1023 137.108 21.7835 137.654 21.4647C139.047 20.6583 140.383 19.7582 142.115 19.5894C144.148 19.4019 145.259 20.3395 145.353 22.3461C145.447 24.3151 144.845 26.1904 144.017 27.9532C142.944 30.2223 141.72 32.4351 140.553 34.6667C140.459 34.8543 140.402 35.0793 140.271 35.4919C140.685 35.3418 140.967 35.2856 141.193 35.1543C142.228 34.573 143.245 33.9541 144.299 33.3728C145.955 32.4726 148.064 32.6414 149.457 33.9166C150.228 34.6105 150.567 35.5856 150.116 36.5983C149.419 38.1173 148.666 39.6175 147.875 41.0802C146.878 42.918 145.805 44.7183 144.788 46.5561C144.393 47.2499 143.941 47.9438 143.753 48.6939C143.565 49.4065 143.565 50.2129 143.715 50.9255C143.847 51.5444 144.412 51.8256 144.995 51.2631C145.617 50.6817 146.238 50.1191 146.784 49.4628C148.967 46.8374 150.981 44.1182 152.638 41.099C154.313 38.0422 156.61 35.4731 159.979 34.1041C161.711 33.3915 163.537 33.3165 165.307 33.5978C167.697 33.9729 168.62 36.5045 167.961 38.6048C167.886 38.8299 167.773 39.0549 167.641 39.3737C166.85 39.2424 166.041 39.0737 165.231 38.9611C163.819 38.7549 162.483 39.1487 161.278 39.7675C158.869 40.9865 157.288 43.0868 156.12 45.4497C155.255 47.1937 155.01 49.219 155.443 51.0755C155.857 52.8946 157.476 53.7759 159.264 52.6133C160.582 51.7506 161.165 50.9443 161.994 49.1627C161.655 48.9564 161.316 48.7502 160.958 48.5251C160.281 48.1126 159.81 46.7061 160.111 45.6934C160.412 44.662 160.714 43.6119 161.241 42.693C161.899 41.5115 163.763 40.4239 165.382 41.5678C166.154 42.1116 166.455 42.7492 166.191 43.6869C166.003 44.362 165.928 45.0558 165.777 45.9185C166.229 45.8997 166.53 45.9372 166.794 45.8435C168.544 45.1871 170.257 44.3995 171.5 42.9368C171.839 42.5429 172.046 42.0179 172.253 41.5115C172.912 39.9738 173.589 38.4361 174.154 36.8608C174.945 34.648 175.716 32.4351 176.394 30.1848C177.034 28.0844 177.938 25.9466 177.994 23.8275C178.051 21.7835 179.387 21.3709 180.592 20.6583C181.42 20.1707 182.399 19.9269 183.34 19.6456C185.26 19.0643 186.691 20.4145 186.766 22.0835C186.804 22.9462 186.747 23.8463 186.521 24.6714C185.599 28.0282 184.018 31.1412 182.342 34.1791C181.213 36.2232 180.121 38.2673 179.086 40.3676C178.013 42.543 176.996 44.7558 176.036 47.0061C175.603 48.0376 175.34 49.144 175.152 50.2316C175.095 50.5692 175.49 51.0943 175.829 51.3568C176.243 51.6944 176.658 51.4131 176.996 51.038C177.862 50.0816 178.803 49.2002 179.613 48.1876C183.359 43.5181 185.731 37.7234 191.058 34.4979C192.263 33.7666 193.618 33.1852 195.03 33.1102C196.442 33.0352 197.948 33.504 198.87 34.5542C200.056 35.9232 200.112 37.9672 199.623 39.6925C197.345 38.1173 194.07 38.6236 191.905 40.3301C189.74 42.0366 188.536 44.7183 187.933 47.4187C187.707 48.4501 187.557 49.5378 187.914 50.5317C188.272 51.5256 189.307 52.3507 190.343 52.1444C191.039 52.0132 191.566 51.4881 191.999 50.9255C193.787 48.5439 194.089 45.3559 195.632 42.8242C196.31 41.6991 197.496 40.6302 198.795 40.8927C199.246 40.9865 199.698 41.2678 199.868 41.7178C200.056 42.2242 199.868 42.7867 199.679 43.2743C198.757 45.7497 197.816 48.2063 196.893 50.6817C196.705 51.1693 196.517 51.6756 196.555 52.1819C196.573 52.707 196.856 53.2509 197.345 53.4196C197.872 53.6072 198.456 53.3071 198.889 52.9508C200.526 51.6006 201.298 49.2002 203.275 48.3751C203.632 49.3315 203.087 50.4192 202.447 51.2818ZM195.086 41.4553C194.992 41.9241 194.973 42.1866 194.879 42.4304C194.051 44.6245 193.204 46.8186 192.394 49.0315C192.056 49.9691 191.472 50.7005 190.606 51.188C189.797 51.6381 189.345 51.3756 189.383 50.4754C189.439 48.5626 190.173 46.7249 191.227 45.1496C191.754 44.3432 192.394 43.6119 193.072 42.918C193.298 42.7117 195.068 41.5678 195.086 41.4553Z" fill="black"/>
<path d="M78.0193 50.8317C78.9793 50.1566 79.9205 49.5002 80.8805 48.8251C82.6688 51.488 82.0288 55.4824 79.4875 57.4515C76.9463 59.4205 72.9179 59.0642 70.7532 56.7014C69.7931 57.414 68.8331 58.1453 67.8731 58.8579C80.937 62.4397 94.095 66.0403 107.611 66.9029C121.126 67.7843 135.188 65.7403 146.765 58.7267C147.104 59.2893 147.443 59.8518 147.763 60.3957C144.487 71.1974 134.586 79.6924 123.385 81.3239C115.893 82.4116 108.307 80.6676 101.098 78.3985C84.1936 73.0727 68.0425 64.7839 50.4608 62.496C49.7643 62.4022 49.0301 62.3272 48.3901 62.6085C47.656 62.9273 47.1854 63.6774 46.7713 64.3525C41.8205 72.3225 34.7803 79.2424 25.9894 82.5804C20.6434 84.6057 14.2809 85.1308 9.49953 82.0365C5.84765 79.7112 3.58876 75.3793 3.75818 71.0661C4.15348 61.4083 14.262 57.1889 22.4505 55.5949C26.1777 54.8636 29.9613 54.8823 33.7261 54.8823C34.7615 54.8823 35.8344 54.8073 36.7945 54.4135C38.9216 53.5321 39.7122 50.7754 40.5969 48.8439C41.7829 46.2747 42.8935 43.6868 44.0229 41.0802C46.2254 35.9606 48.4278 30.8223 51.1196 25.9466C55.8068 17.4515 62.3011 9.50026 71.1485 5.50589C74.6686 3.91189 78.8099 3.01175 82.3865 4.51199C88.0525 6.89361 89.822 14.376 88.2784 20.3207C86.9231 25.5153 82.9324 30.5785 77.5487 30.9724C80.2217 33.354 81.1629 37.1983 80.8805 40.7426C80.5982 44.2869 79.2052 47.6624 77.8498 50.963C77.9063 50.9067 77.9628 50.8692 78.0193 50.8317ZM145.24 60.2644C145.259 60.2269 145.278 60.1894 145.278 60.1519C137.447 65.0652 128.129 67.278 118.886 67.6906C109.644 68.1031 100.401 66.7904 91.3091 65.1027C83.0641 63.5649 74.8756 61.7271 66.706 59.8706C61.2658 58.6329 55.8068 57.414 50.3667 56.1763C49.9902 56.1013 49.5949 55.9887 49.369 55.6887C49.049 55.2574 49.2372 54.676 49.4255 54.1697C52.0985 47.3436 54.7903 40.5176 57.4633 33.6728C59.3458 28.872 61.2658 24.015 64.1647 19.7581C67.0636 15.5012 71.1108 11.7881 76.0427 10.2504C78.0381 9.63153 80.3723 9.4065 82.1041 10.5692C85.1724 12.5945 84.5136 17.4327 82.3488 20.3957C79.7134 17.8266 75.1204 17.6015 72.2403 19.8706C70.3014 21.3896 69.2096 24.2401 70.3955 26.3966C71.4685 28.3094 73.9344 29.0408 76.1369 28.8345C82.7818 28.2344 87.1301 21.0708 87.2995 14.4135C87.356 12.1632 87.0172 9.81906 85.7371 7.96252C84.1559 5.67467 81.3135 4.49323 78.5275 4.41822C75.7416 4.34321 73.0309 5.28086 70.5273 6.51855C62.0564 10.738 55.9009 18.5204 51.3832 26.828C46.8654 35.1167 43.7406 44.0806 39.5993 52.557C39.2416 53.2883 38.8463 54.0384 38.1875 54.5073C37.4157 55.0699 36.3992 55.1261 35.4391 55.1824C24.6529 55.7637 6.09237 56.6638 4.49232 70.5973C4.30408 72.2475 4.51114 73.954 5.18881 75.4918C6.77003 79.0736 10.6102 81.3052 14.5256 81.7552C18.4222 82.2053 22.3564 81.0989 25.933 79.5237C33.425 76.2044 39.9381 70.6348 44.0794 63.6024C44.8888 62.2335 45.7359 60.6957 47.2607 60.2081C48.0701 59.9456 48.9549 60.0394 49.8019 60.1519C68.3625 62.5335 85.2854 71.6662 103.225 76.9545C108.383 78.4735 113.71 79.6924 119.075 79.4299C130.557 78.8673 141.306 70.9723 145.24 60.2644ZM78.5652 38.4173C79.2617 37.7234 79.2805 37.7234 79.2617 35.6231C79.2428 33.804 78.3769 32.4351 76.8145 31.61C74.405 30.3535 71.9203 30.8036 69.7178 32.0038C66.7813 33.579 64.5036 35.9981 62.7341 38.7736C61.4164 40.8551 60.1552 43.068 59.4211 45.4121C58.6869 47.775 58.5551 50.4004 59.1763 52.857C60.1364 56.6451 62.207 57.5077 65.4824 56.5513C67.026 56.1013 68.3813 54.9386 69.812 54.0947C70.0755 53.9447 70.3767 53.7947 70.6402 53.6446C70.7532 53.9072 70.9226 54.151 70.9791 54.4322C71.2991 56.0638 72.9932 57.1514 74.3486 56.5513C75.478 56.045 76.7016 55.6137 77.6993 54.9011C79.5817 53.5696 81.0123 52.5382 80.297 50.2691C80.1276 50.4191 79.977 50.5504 79.8076 50.6817C78.8664 51.413 77.944 52.1631 77.0028 52.8758C76.5322 53.2321 76.1369 53.1571 75.7039 52.632C75.0639 51.8631 75.4215 51.038 75.591 50.3629C76.0427 48.7126 76.6639 47.1186 77.3228 45.5434C77.9251 44.0619 78.6405 42.6367 79.2805 41.1927C79.657 40.3301 79.4875 39.9175 78.6028 39.5424C77.5675 39.0924 75.6851 39.2799 75.0451 40.18C74.2921 41.2302 73.7462 42.4491 73.2568 43.6493C72.485 45.5996 71.9014 47.6437 71.092 49.594C70.659 50.6254 69.7178 51.3568 68.6072 51.5443C66.3107 51.9194 65.2942 49.4627 65.633 47.85C65.9154 46.4623 66.3671 45.0745 66.913 43.7618C67.666 41.9616 68.7578 40.3301 70.2637 39.1111C72.8238 37.0483 75.6474 36.692 78.5652 38.4173ZM72.372 30.4098C71.412 28.872 69.9437 27.5968 69.4355 25.8528C68.9837 24.2963 69.3978 22.5898 70.2449 21.2208C71.3744 19.4018 73.2756 18.0891 75.3839 17.6765C77.4922 17.264 79.7511 17.7515 81.4829 19.008C81.7276 19.1955 82.0476 19.4018 82.33 19.2705C82.5182 19.1955 82.6123 18.9892 82.6876 18.8017C83.1018 17.8266 83.403 16.8139 83.5912 15.7825C83.7794 14.7886 83.8171 13.6259 83.1394 12.8758C82.7818 12.5007 82.2923 12.2757 81.7841 12.1444C80.5605 11.8256 79.2617 11.9569 78.0193 12.2382C73.1438 13.3634 69.0778 16.8139 66.1977 20.8833C63.3176 24.9527 61.4917 29.6596 59.6846 34.3104C56.9363 41.399 54.1879 48.4688 51.4396 55.5574C52.6444 56.2888 54.188 56.3263 55.5621 56.5513C56.221 56.6638 60.0799 56.7764 60.3434 57.1702C59.214 55.5387 58.4798 53.6446 58.1975 51.6943C57.5951 47.3249 59.3269 42.9555 61.6611 39.2049C64.2024 35.173 67.7413 31.4412 72.372 30.4098ZM73.9909 39.7862C73.4827 40.03 73.2191 40.1425 72.9744 40.2926C70.6026 41.699 69.2849 43.9306 68.3437 46.3872C67.9295 47.4937 67.5907 48.6563 67.4025 49.8378C67.2707 50.7004 67.8731 50.9817 68.7202 50.7192C69.9814 50.3441 70.4708 49.3127 70.9038 48.2625C71.8638 45.8247 72.7673 43.3493 73.6709 40.8926C73.7838 40.6114 73.8403 40.3488 73.9909 39.7862Z" fill="black"/>
<path d="M119.037 30.3536C119.639 29.3785 120.166 28.3283 120.882 27.4657C122.369 25.6841 123.894 23.9401 125.531 22.2899C126.171 21.6335 127.094 21.2397 127.941 20.8271C128.543 20.5271 129.334 20.3208 129.786 21.0334C130.275 21.8023 129.861 22.5524 129.428 23.2275C127.865 25.6654 125.569 27.2594 123.122 28.6846C121.879 29.3972 120.618 30.0348 119.357 30.7099C119.263 30.5787 119.15 30.4661 119.037 30.3536Z" fill="black"/>
<path d="M36.2674 58.7267C36.1168 59.2893 36.0603 59.7581 35.8721 60.1707C35.0438 61.8772 34.2721 63.64 33.2932 65.2715C32.4273 66.6967 31.392 68.0282 30.319 69.3034C29.0954 70.7661 27.853 72.2663 26.4224 73.504C24.0506 75.5293 21.3964 77.1233 18.2716 77.8922C16.728 78.2673 15.1844 78.436 13.7726 78.0422C10.7608 77.1983 10.1772 75.0042 10.4596 72.2476C10.5725 71.1974 10.7984 70.091 11.269 69.1721C13.2455 65.384 16.0691 62.5336 20.3234 61.2959C21.8105 60.8645 23.2411 60.227 24.7282 59.8519C26.253 59.4768 27.8154 59.233 29.3778 59.083C31.4108 58.8767 33.4626 58.8205 35.5144 58.6892C35.6839 58.6892 35.8721 58.708 36.2674 58.7267ZM15.5609 77.5734C15.5797 77.5171 15.5797 77.4609 15.5985 77.4046C16.1256 77.4046 16.6903 77.5171 17.1986 77.3859C20.9258 76.4857 24.22 74.723 26.9495 72.0413C28.4366 70.5786 29.8484 69.0221 31.072 67.3343C32.3143 65.6278 33.2744 63.7337 34.3474 61.896C34.5921 61.4834 34.5921 60.9208 33.9332 60.9771C32.5026 61.1083 31.0531 61.2771 29.6413 61.5772C27.326 62.0647 25.0294 62.6086 22.7329 63.1899C20.2857 63.8088 18.0269 64.9339 16.2762 66.6967C14.1114 68.872 12.3608 71.3474 12.1914 74.6292C12.1161 76.0169 12.2479 76.6358 13.5279 77.0858C14.1679 77.3484 14.8832 77.4234 15.5609 77.5734Z" fill="black"/>
<defs>
<linearGradient id="paint0_linear_35_381" x1="68.766" y1="4.19181" x2="69.9067" y2="66.8837" gradientUnits="userSpaceOnUse">
<stop stop-color="#FDF23E"/>
<stop offset="0.417" stop-color="#FDF23E"/>
<stop offset="0.4388" stop-color="#FDF23E"/>
<stop offset="0.4796" stop-color="#FDEE3E"/>
<stop offset="0.5182" stop-color="#FCE33F"/>
<stop offset="0.5559" stop-color="#FAD03F"/>
<stop offset="0.593" stop-color="#F8B541"/>
<stop offset="0.6298" stop-color="#F59242"/>
<stop offset="0.6662" stop-color="#F26844"/>
<stop offset="0.7018" stop-color="#ED3746"/>
<stop offset="0.7055" stop-color="#ED3146"/>
<stop offset="0.8941" stop-color="#EA2189"/>
</linearGradient>
<linearGradient id="paint1_linear_35_381" x1="73.7455" y1="4.1013" x2="74.8862" y2="66.7932" gradientUnits="userSpaceOnUse">
<stop stop-color="#FDF23E"/>
<stop offset="0.417" stop-color="#FDF23E"/>
<stop offset="0.4388" stop-color="#FDF23E"/>
<stop offset="0.4796" stop-color="#FDEE3E"/>
<stop offset="0.5182" stop-color="#FCE33F"/>
<stop offset="0.5559" stop-color="#FAD03F"/>
<stop offset="0.593" stop-color="#F8B541"/>
<stop offset="0.6298" stop-color="#F59242"/>
<stop offset="0.6662" stop-color="#F26844"/>
<stop offset="0.7018" stop-color="#ED3746"/>
<stop offset="0.7055" stop-color="#ED3146"/>
<stop offset="0.8941" stop-color="#EA2189"/>
</linearGradient>
<linearGradient id="paint2_linear_35_381" x1="142.43" y1="2.85155" x2="143.571" y2="65.5434" gradientUnits="userSpaceOnUse">
<stop stop-color="#FDF23E"/>
<stop offset="0.417" stop-color="#FDF23E"/>
<stop offset="0.4388" stop-color="#FDF23E"/>
<stop offset="0.4796" stop-color="#FDEE3E"/>
<stop offset="0.5182" stop-color="#FCE33F"/>
<stop offset="0.5559" stop-color="#FAD03F"/>
<stop offset="0.593" stop-color="#F8B541"/>
<stop offset="0.6298" stop-color="#F59242"/>
<stop offset="0.6662" stop-color="#F26844"/>
<stop offset="0.7018" stop-color="#ED3746"/>
<stop offset="0.7055" stop-color="#ED3146"/>
<stop offset="0.8941" stop-color="#EA2189"/>
</linearGradient>
</defs>
</svg>
