<svg width="1280" height="339" viewBox="0 0 1280 339" fill="none" xmlns="http://www.w3.org/2000/svg">
<path d="M787.121 217.418C787.121 250.851 787.121 282.751 787.121 315.348C747.411 315.348 709.14 315.348 669.717 315.348C669.717 288.881 669.717 262.413 669.717 235.109C685.544 235.109 701.514 235.109 718.923 235.109C718.923 245.139 718.923 255.169 718.923 266.174C725.11 266.174 730.146 266.174 735.901 266.174C735.901 250.572 735.901 234.97 735.901 218.393C708.42 218.393 680.796 218.393 651.876 218.393C651.876 250.572 651.876 282.473 651.876 315.209C611.878 315.209 573.319 315.209 533.896 315.209C533.896 288.463 533.896 262.274 533.896 235.249C550.011 235.249 565.981 235.249 583.678 235.249C583.678 245.279 583.678 255.587 583.678 266.453C590.009 266.453 594.757 266.453 600.224 266.453C600.224 250.572 600.224 234.97 600.224 218.393C573.031 218.393 545.838 218.393 516.631 218.393C516.631 250.433 516.631 282.612 516.631 315.348C476.345 315.348 437.93 315.348 398.651 315.348C398.651 288.602 398.651 262.134 398.651 234.97C414.909 234.97 431.023 234.97 448.145 234.97C448.145 245.139 448.145 255.169 448.145 266.174C453.9 266.174 458.648 266.174 464.403 266.174C464.403 250.572 464.403 234.831 464.403 218.114C437.066 218.114 409.73 218.114 381.098 218.114C381.098 250.433 381.098 282.333 381.098 315.07C341.244 315.07 302.54 315.07 263.262 315.07C263.262 288.463 263.262 262.274 263.262 235.109C279.088 235.109 295.203 235.109 312.756 235.109C312.756 245 312.756 255.308 312.756 266.313C318.943 266.313 323.691 266.313 329.446 266.313C329.446 250.433 329.446 234.691 329.446 218.114C301.821 218.114 274.484 218.114 245.853 218.114C245.853 250.293 245.853 282.194 245.853 315.07C205.854 315.07 167.295 315.07 127.873 315.07C127.873 288.463 127.873 261.995 127.873 234.831C143.987 234.831 159.814 234.831 177.079 234.831C177.079 244.861 177.079 255.308 177.079 266.313C183.697 266.313 188.733 266.313 194.344 266.313C194.344 250.154 194.344 234.691 194.344 217.418C184.129 217.418 174.057 217.418 164.13 217.418C149.454 217.418 134.635 217.836 119.959 217.279C112.046 217 109.456 219.507 109.6 227.169C110.032 252.801 109.744 278.433 109.744 303.925C109.744 307.547 109.744 311.03 109.744 315.209C70.1776 315.209 31.7621 315.209 -7.51654 315.209C-7.51654 288.741 -7.51654 262.413 -7.51654 235.109C8.31003 235.109 24.2805 235.109 41.6897 235.109C41.6897 245.139 41.6897 255.169 41.6897 266.174C48.0203 266.174 52.9122 266.174 58.6673 266.174C58.6673 250.433 58.6673 234.831 58.6673 218.393C31.0428 218.393 3.41818 218.393 -25.5013 218.393C-25.5013 250.851 -25.5013 282.89 -25.5013 315.348C-31.5442 315.348 -36.2921 315.348 -41.7595 315.348C-41.7595 277.597 -41.7595 240.542 -41.7595 202.373C-3.20021 202.373 35.503 202.373 74.9255 202.373C74.9255 228.701 74.9255 255.169 74.9255 282.333C58.8112 282.333 42.8407 282.333 25.7193 282.333C25.7193 272.164 25.7193 261.995 25.7193 251.129C19.6764 251.129 14.6407 251.129 8.88554 251.129C8.88554 267.01 8.88554 282.612 8.88554 299.05C36.5101 299.05 63.8469 299.05 92.3348 299.05C92.3348 267.289 92.3348 235.388 92.3348 202.373C132.189 202.373 170.892 202.373 210.459 202.373C210.459 228.562 210.459 255.03 210.459 282.333C194.632 282.333 178.518 282.333 161.396 282.333C161.396 272.303 161.396 262.274 161.396 251.269C155.209 251.269 150.174 251.269 144.419 251.269C144.419 266.871 144.419 282.473 144.419 299.05C172.043 299.05 199.668 299.05 228.587 299.05C228.587 266.871 228.587 234.831 228.587 202.234C268.585 202.234 307.145 202.234 346.423 202.234C346.423 228.98 346.423 255.169 346.423 282.194C330.309 282.194 314.338 282.194 296.785 282.194C296.785 272.164 296.785 261.856 296.785 250.99C290.455 250.99 285.707 250.99 280.095 250.99C280.095 267.01 280.095 282.89 280.095 299.328C308.008 299.328 335.345 299.328 363.976 299.328C363.976 267.01 363.976 234.97 363.976 202.234C403.831 202.234 442.534 202.234 481.956 202.234C481.956 229.119 481.956 255.587 481.956 282.473C465.123 282.473 449.152 282.473 431.887 282.473C431.887 271.746 431.887 261.716 431.887 250.99C425.988 250.99 421.24 250.99 415.772 250.99C415.772 267.01 415.772 282.89 415.772 299.328C443.685 299.328 471.022 299.328 499.653 299.328C499.653 266.592 499.653 234.691 499.653 202.094C539.364 202.094 577.635 202.094 616.914 202.094C616.914 228.701 616.914 255.169 616.914 282.333C601.087 282.333 584.973 282.333 567.708 282.333C567.708 272.164 567.708 262.134 567.708 251.129C561.952 251.129 557.204 251.129 551.449 251.129C551.449 266.592 551.449 282.473 551.449 299.05C578.786 299.05 606.123 299.05 634.755 299.05C634.755 266.731 634.755 234.831 634.755 202.094C674.753 202.094 713.312 202.094 752.591 202.094C752.591 228.701 752.591 254.89 752.591 282.055C736.764 282.055 720.794 282.055 703.241 282.055C703.241 272.164 703.241 261.856 703.241 250.851C696.766 250.851 691.73 250.851 686.119 250.851C686.119 267.01 686.119 282.612 686.119 299.886C704.823 299.886 723.24 299.886 741.512 299.886C770.719 299.886 770.719 299.886 770.719 271.328C770.719 248.622 770.719 226.055 770.719 202.373C809.854 202.373 848.557 202.373 888.124 202.373C888.124 228.423 888.124 254.891 888.124 282.194C872.297 282.194 856.327 282.194 839.061 282.194C839.061 272.303 839.061 262.274 839.061 251.269C832.875 251.269 827.839 251.269 821.94 251.269C821.94 266.871 821.94 282.751 821.94 299.328C849.708 299.328 877.045 299.328 905.677 299.328C905.677 267.01 905.677 235.109 905.677 202.234C945.675 202.234 984.378 202.234 1023.66 202.234C1023.66 228.98 1023.66 255.448 1023.66 282.473C1006.97 282.473 990.997 282.473 973.731 282.473C973.731 271.886 973.731 261.856 973.731 250.99C967.832 250.99 963.084 250.99 957.473 250.99C957.473 266.871 957.473 282.751 957.473 299.189C985.098 299.189 1012.43 299.189 1041.07 299.189C1041.07 266.731 1041.07 234.691 1041.07 202.094C1081.06 202.094 1119.77 202.094 1159.05 202.094C1159.05 228.98 1159.05 255.448 1159.05 282.473C1142.64 282.473 1126.82 282.473 1109.41 282.473C1109.41 272.025 1109.41 261.716 1109.41 250.851C1103.08 250.851 1098.33 250.851 1092.86 250.851C1092.86 267.149 1092.86 282.89 1092.86 299.328C1120.63 299.328 1147.68 299.328 1176.02 299.328C1176.02 267.01 1176.02 235.109 1176.02 202.234C1216.02 202.234 1254.58 202.234 1294 202.234C1294 228.562 1294 255.03 1294 282.194C1277.89 282.194 1261.92 282.194 1244.65 282.194C1244.65 271.886 1244.65 261.856 1244.65 250.99C1238.47 250.99 1233.57 250.99 1227.82 250.99C1227.82 266.871 1227.82 282.473 1227.82 299.328C1255.59 299.328 1282.92 299.328 1311.13 299.328C1311.13 305.179 1311.13 309.637 1311.13 315.07C1278.32 315.07 1245.23 315.07 1211.27 315.07C1211.27 288.881 1211.27 262.413 1211.27 235.109C1227.1 235.109 1243.21 235.109 1260.48 235.109C1260.48 245.139 1260.48 255.169 1260.48 266.174C1266.81 266.174 1271.7 266.174 1277.46 266.174C1277.46 250.433 1277.46 234.831 1277.46 217.418C1271.99 217.418 1266.38 217.418 1260.91 217.418C1241.63 217.418 1222.35 217.836 1203.07 217.279C1194.87 217 1192.86 219.925 1193 227.448C1193.43 253.08 1193.15 278.711 1193.15 304.204C1193.15 307.687 1193.15 311.308 1193.15 315.348C1153.43 315.348 1115.16 315.348 1075.74 315.348C1075.74 288.741 1075.74 262.413 1075.74 235.109C1091.86 235.109 1107.83 235.109 1125.09 235.109C1125.09 245 1125.09 255.169 1125.09 266.174C1131.28 266.174 1136.31 266.174 1141.92 266.174C1141.92 250.293 1141.92 234.692 1141.92 218.254C1114.16 218.254 1086.96 218.254 1058.19 218.254C1058.19 250.572 1058.19 282.473 1058.19 315.209C1018.19 315.209 979.486 315.209 940.208 315.209C940.208 288.602 940.208 261.995 940.208 234.97C956.61 234.97 972.724 234.97 989.989 234.97C989.989 245.557 989.989 255.587 989.989 266.453C995.888 266.453 1000.64 266.453 1006.25 266.453C1006.25 250.433 1006.25 234.692 1006.25 218.254C978.479 218.254 951.142 218.254 922.511 218.254C922.511 250.851 922.511 282.751 922.511 315.488C882.944 315.488 844.529 315.488 805.25 315.488C805.25 289.02 805.25 262.552 805.25 235.388C821.077 235.388 837.047 235.388 854.313 235.388C854.313 245.418 854.313 255.448 854.313 266.453C860.499 266.453 865.391 266.453 872.009 266.453C872.009 251.687 872.297 237.06 871.722 222.572C871.722 220.9 867.261 217.836 864.816 217.836C839.781 217.279 814.458 217.418 787.121 217.418Z" fill="white" fill-opacity="0.1"/>
<path d="M96.3633 121.716C70.1776 97.3383 48.0203 76.5821 22.6978 52.7612C1.9794 75.189 -18.1635 96.9204 -38.1626 118.512C-43.7738 108.065 -42.335 101.935 -35.7166 95.9453C-15.4298 77.4179 4.42532 58.4726 25.2876 38.8308C47.7326 59.8657 69.8898 80.6219 94.4929 103.746C115.355 80.9005 135.786 58.4726 156.217 36.0448C158.375 36.4627 160.677 37.0199 162.835 37.4378C183.41 59.8657 203.84 82.1542 225.278 105.557C251.176 81.3184 273.189 60.5622 296.354 38.9701C319.086 60.1443 341.387 81.1791 367.429 105.418C388.579 82.2935 409.01 60.005 432.318 34.5125C455.339 59.4478 475.626 81.597 496.92 104.861C522.098 81.3184 544.255 60.5622 567.42 38.9701C589.721 59.8657 611.878 80.4826 635.186 102.214C657.631 81.3184 679.788 60.5622 702.953 38.9701C725.398 60.005 747.555 80.7612 770.719 102.353C793.308 81.1791 815.465 60.4229 838.486 38.9701C861.075 60.1443 883.232 80.9005 907.691 103.886C928.841 81.1791 949.56 59.0298 970.134 36.8806C972.148 37.0199 974.307 37.2985 976.321 37.4378C996.752 59.7263 1017.33 82.0149 1038.76 105.279C1064.23 81.3184 1086.39 60.7015 1109.26 39.1094C1131.71 60.1443 1153.87 80.9005 1177.03 102.493C1199.62 81.3184 1221.78 60.7015 1244.8 39.1094C1255.73 49.4179 1266.24 59.1692 1276.74 69.0597C1286.23 77.9751 1295.3 87.3085 1305.23 95.6667C1312.13 101.378 1314.15 107.786 1311.27 117.816C1288.97 96.9204 1267.53 76.8607 1244.65 55.5472C1222.35 76.4428 1200.19 97.199 1176.89 118.93C1154.44 97.8955 1132.14 77 1106.96 53.4577C1085.81 76.4428 1065.24 98.7313 1041.93 124.085C1018.19 98.4527 997.471 76.0249 974.594 51.2289C950.998 76.5821 930.28 98.7313 906.972 123.945C883.232 98.3134 862.657 76.0249 841.22 53.0398C815.753 76.8607 793.596 97.6169 770.575 119.07C748.131 98.0348 725.973 77.2786 702.809 55.6866C680.076 76.8607 657.919 97.4776 634.899 119.07C612.31 97.8955 590.296 77.1393 565.405 53.8756C544.399 76.8607 524.113 99.2885 503.682 121.716C501.524 121.438 499.366 121.02 497.207 120.741C476.633 98.4527 456.058 76.1642 433.038 51.2289C409.442 77 388.867 99.2886 365.991 124.224C341.819 98.3134 321.245 76.1642 299.519 52.9005C273.765 77 251.464 97.8955 225.422 122.274C204.272 99.4279 183.697 77 160.965 52.3433C138.088 76.4428 117.657 98.592 96.3633 121.716Z" fill="white" fill-opacity="0.1"/>
<path d="M361.243 153.756C340.524 131.468 319.95 109.179 296.785 84.2437C273.477 109.458 252.903 131.746 231.609 154.731C205.998 130.771 183.841 110.015 160.821 88.4228C138.088 109.736 116.075 130.353 93.0541 151.806C70.4653 130.632 48.3081 110.015 25.2876 88.4228C3.27429 109.04 -18.3074 129.378 -39.8891 149.577C-40.8962 149.298 -42.0473 148.881 -43.0544 148.602C-41.7595 143.308 -42.1911 136.204 -38.7381 132.861C-18.1635 112.522 3.13041 92.8805 25.4315 72.1243C48.0203 93.2985 70.1775 114.055 94.6368 136.9C115.499 114.194 136.074 91.9054 158.375 67.8059C182.69 93.8557 203.409 116.005 224.99 139.129C251.176 114.612 273.621 93.7163 298.656 70.174C319.662 93.0198 340.236 115.448 363.401 140.801C387.141 115.03 407.859 92.8805 429.153 69.7561C454.475 93.4377 476.489 114.055 499.653 135.786C522.098 114.751 544.255 93.9949 567.276 72.4029C589.865 93.4377 612.022 114.194 636.481 137.04C657.343 114.333 677.774 91.9054 698.205 69.4775C700.363 70.0347 702.521 70.4527 704.679 71.0099C725.11 93.4377 745.684 115.726 766.115 138.154C768.129 137.736 770 137.179 772.014 136.761C792.445 114.333 812.875 91.9054 834.169 68.6417C860.787 93.5771 883.232 114.473 908.554 138.154C929.56 115.308 950.279 93.0198 970.853 70.592C972.868 70.4527 974.882 70.4527 976.896 70.3134C997.327 92.6019 1017.9 115.03 1039.05 138.154C1064.23 114.612 1086.39 93.8557 1111.28 70.7313C1132.28 93.2985 1152.86 115.587 1174.15 138.572C1199.62 114.751 1221.78 94.1343 1244.8 72.5422C1266.81 93.1591 1288.68 113.219 1309.69 133.975C1312.85 137.179 1312.28 143.866 1313.43 148.881C1312.42 149.438 1311.56 149.856 1310.55 150.413C1288.97 130.214 1267.39 110.154 1244.65 88.8407C1222.35 109.736 1200.19 130.492 1177.03 152.363C1154.73 131.328 1132.57 110.572 1109.41 88.8407C1086.82 110.015 1064.37 130.91 1038.76 154.871C1017.76 131.886 997.183 109.597 973.875 84.1044C950.423 109.597 929.848 132.025 909.418 154.453C907.403 154.453 905.245 154.313 903.231 154.313C882.656 132.025 861.938 109.736 840.644 86.7512C815.753 110.154 793.596 130.91 770.863 152.363C747.986 131.05 725.829 110.293 703.097 88.8407C680.364 110.154 658.207 130.91 635.474 152.224C612.741 130.91 590.584 110.154 567.707 88.8407C544.831 110.154 522.674 130.91 497.207 154.731C476.201 131.885 455.77 109.458 432.606 84.2437C409.154 109.876 388.723 132.303 368.149 154.731C365.559 154.174 363.401 153.895 361.243 153.756Z" fill="white" fill-opacity="0.1"/>
<path d="M1311.56 333.736C1311.56 339.03 1311.56 343.209 1311.56 348.085C860.211 348.085 409.586 348.085 -41.7595 348.085C-41.7595 343.209 -41.7595 339.03 -41.7595 333.736C409.154 333.736 860.068 333.736 1311.56 333.736Z" fill="white" fill-opacity="0.1"/>
<path d="M1311.99 169.637C1311.99 174.652 1311.99 178.692 1311.99 183.706C860.787 183.706 409.729 183.706 -41.7595 183.706C-41.7595 179.249 -41.7595 174.93 -41.7595 169.637C409.01 169.637 860.067 169.637 1311.99 169.637Z" fill="white" fill-opacity="0.1"/>
<path d="M634.323 22.1144C413.758 22.1144 193.193 22.1145 -27.2278 21.9752C-32.2636 21.9752 -37.2993 19.7463 -42.335 18.4926C-37.4432 17.0995 -32.6952 14.4527 -27.8033 14.4527C412.463 14.3134 852.874 14.3134 1293.14 14.4527C1299.47 14.4527 1305.8 17.0995 1311.99 18.4926C1305.51 19.607 1299.04 21.8359 1292.56 21.8359C1073.15 22.1145 853.737 22.1144 634.323 22.1144Z" fill="white" fill-opacity="0.1"/>
<path d="M568.427 111.547C580.944 123.667 594.613 136.761 609.288 150.692C580.944 150.692 553.607 150.692 526.414 150.692C540.371 137.736 554.327 124.781 568.427 111.547Z" fill="white" fill-opacity="0.1"/>
<path d="M27.3019 112.522C38.6683 123.667 52.3367 137.04 66.149 150.692C39.3877 150.692 12.0509 150.692 -13.2717 150.692C-0.466529 138.712 13.4896 125.478 27.3019 112.522Z" fill="white" fill-opacity="0.1"/>
<path d="M162.547 112.104C174.345 123.527 188.014 136.901 202.257 150.831C174.921 150.831 147.584 150.831 121.542 150.831C134.779 138.294 148.735 125.06 162.547 112.104Z" fill="white" fill-opacity="0.1"/>
<path d="M1245.37 113.219C1257.89 124.642 1271.7 137.318 1286.67 150.97C1258.18 150.97 1230.98 150.97 1206.09 150.97C1218.76 138.851 1232.71 125.478 1245.37 113.219Z" fill="white" fill-opacity="0.1"/>
<path d="M1149.98 151.249C1122.64 151.249 1095.45 151.249 1070.13 151.249C1083.08 138.711 1096.89 125.338 1110.42 112.244C1122.07 123.806 1135.74 137.179 1149.98 151.249Z" fill="white" fill-opacity="0.1"/>
<path d="M704.248 111.687C716.621 123.527 730.29 136.622 744.965 150.692C716.477 150.692 689.14 150.692 662.667 150.692C676.191 138.154 690.148 125.06 704.248 111.687Z" fill="white" fill-opacity="0.1"/>
<path d="M390.018 150.831C404.406 136.901 418.218 123.667 432.031 110.294C445.267 123.388 458.936 136.761 473.036 150.831C445.555 150.831 418.074 150.831 390.018 150.831Z" fill="white" fill-opacity="0.1"/>
<path d="M839.349 112.244C851.291 123.806 865.103 137.04 879.491 150.831C852.154 150.831 824.817 150.831 797.768 150.831C811.437 138.015 825.537 124.92 839.349 112.244Z" fill="white" fill-opacity="0.1"/>
<path d="M254.197 151.109C269.017 136.622 282.829 123.388 295.49 111.129C309.159 124.363 322.827 137.736 336.783 151.109C310.022 151.109 282.829 151.109 254.197 151.109Z" fill="white" fill-opacity="0.1"/>
<path d="M931.143 150.97C946.394 136.622 960.207 123.388 972.868 111.547C986.536 124.224 1000.64 137.179 1015.46 150.97C987.4 150.97 960.207 150.97 931.143 150.97Z" fill="white" fill-opacity="0.1"/>
<path d="M89.6011 65.2984C86.4357 60.4228 81.1123 55.6865 80.5367 50.5323C79.8173 43.1492 85.7164 38.8308 93.7735 39.1094C101.975 39.388 106.866 44.9602 105.428 51.9253C104.42 56.9402 98.6654 61.1193 94.9245 65.577C93.198 65.577 91.3276 65.4377 89.6011 65.2984Z" fill="white" fill-opacity="0.1"/>
<path d="M1172.86 65.2984C1169.84 60.2835 1164.66 55.5472 1164.37 50.2537C1163.79 42.8706 1169.69 38.5522 1177.75 39.1094C1185.81 39.6666 1190.99 44.8208 1189.12 52.0646C1187.82 57.0795 1182.07 61.1193 1178.33 65.577C1176.6 65.577 1174.73 65.4377 1172.86 65.2984Z" fill="white" fill-opacity="0.1"/>
<path d="M503.538 63.9055C491.596 63.3483 486.848 59.1692 486.848 51.5075C486.704 43.9851 491.308 39.2488 499.366 39.2488C507.423 39.2488 513.034 43.8458 511.883 51.2289C511.163 56.2438 505.696 60.7015 503.538 63.9055Z" fill="white" fill-opacity="0.1"/>
<path d="M632.021 65.4377C628.712 60.7014 623.101 56.2437 622.381 51.0895C621.374 43.8457 627.129 39.1094 635.042 39.1094C643.1 39.2487 648.567 44.1243 647.272 51.3681C646.409 56.5223 640.798 60.8407 637.344 65.577C635.618 65.4377 633.891 65.4377 632.021 65.4377Z" fill="white" fill-opacity="0.1"/>
<path d="M1045.53 38.6915C1047.83 42.0348 1053.15 46.4925 1053.73 51.6467C1054.59 58.8905 1049.12 63.7661 1041.07 63.4875C1033.01 63.2089 1028.69 58.7512 1028.84 50.9502C1028.98 43.1492 1033.87 39.388 1045.53 38.6915Z" fill="white" fill-opacity="0.1"/>
<path d="M376.781 50.8109C376.35 58.4726 372.609 63.3482 364.552 63.6268C356.495 63.9054 351.747 59.587 351.459 51.9253C351.027 44.1243 355.631 39.5273 363.545 39.2487C371.458 38.8308 375.918 43.2885 376.781 50.8109Z" fill="white" fill-opacity="0.1"/>
<path d="M783.524 47.7463C782.373 59.0299 778.345 63.6269 770.288 63.6269C762.087 63.6269 757.626 58.8905 757.626 51.3681C757.626 43.7064 762.662 38.2736 770.288 39.5273C775.611 40.3632 780.215 45.5174 783.524 47.7463Z" fill="white" fill-opacity="0.1"/>
<path d="M241.392 51.3682C240.817 58.4726 237.22 63.4876 228.875 63.6269C220.818 63.7662 215.926 59.4478 215.782 51.7861C215.638 44.2637 219.954 39.5274 228.156 39.2488C236.357 38.8309 240.385 43.4279 241.392 51.3682Z" fill="white" fill-opacity="0.1"/>
<path d="M907.979 37.1592C911.432 41.7562 917.043 45.9353 918.05 50.9502C919.633 58.194 914.309 63.2089 906.252 63.4875C898.195 63.7661 893.591 59.4477 893.159 51.786C892.872 43.9851 897.476 39.9452 907.979 37.1592Z" fill="white" fill-opacity="0.1"/>
</svg>
