<svg width="18" height="21" viewBox="0 0 18 21" fill="none" xmlns="http://www.w3.org/2000/svg">
<path d="M7 2.5V4.5H11V2.5H7ZM3.86523 17.5713C3.90265 18.0946 4.33769 18.5 4.8623 18.5H13.1377C13.6623 18.5 14.0974 18.0946 14.1348 17.5713L14.9268 6.5H3.07324L3.86523 17.5713ZM6 15.5V9.5C6 8.94771 6.44772 8.5 7 8.5C7.55228 8.5 8 8.94771 8 9.5V15.5C8 16.0523 7.55228 16.5 7 16.5C6.44772 16.5 6 16.0523 6 15.5ZM10 15.5V9.5C10 8.94771 10.4477 8.5 11 8.5C11.5523 8.5 12 8.94771 12 9.5V15.5C12 16.0523 11.5523 16.5 11 16.5C10.4477 16.5 10 16.0523 10 15.5ZM13 4.5H17C17.5523 4.5 18 4.94772 18 5.5C18 6.05228 17.5523 6.5 17 6.5H16.9307L16.1299 17.7139C16.0177 19.2837 14.7116 20.5 13.1377 20.5H4.8623C3.28844 20.5 1.98232 19.2837 1.87012 17.7139L1.06934 6.5H1C0.447715 6.5 0 6.05228 0 5.5C0 4.94772 0.447715 4.5 1 4.5H5V2.5C5 1.39543 5.89543 0.5 7 0.5H11C12.1046 0.5 13 1.39543 13 2.5V4.5Z" fill="#545F71"/>
</svg>
